<?xml version="1.0" encoding="UTF-8"?>
<!-- Generator: visioncortex VTracer 0.6.12 -->
<svg version="1.1" xmlns="http://www.w3.org/2000/svg" width="41" height="46">
<path d="M0 0 C6.85 3.062 10.784 8.436 13.625 15.297 C14.806 22.41 15.186 30.833 12.195 37.469 C9.512 40.993 6.863 43.82 2.625 45.297 C-0.337 45.633 -3.271 45.667 -6.25 45.672 C-7.04 45.696 -7.83 45.721 -8.645 45.746 C-14.047 45.773 -17.094 44.875 -21.375 41.297 C-26.4 35.155 -27.649 29.144 -27.312 21.422 C-26.468 13.738 -23.683 7.292 -18.312 1.672 C-13.026 -2.391 -6.129 -1.815 0 0 Z " fill="#07214A" transform="translate(27.375,0.703125)"/>
<path d="M0 0 C6.823 0.897 11.521 2.641 16 8 C20.776 14.843 23.072 22.655 22 31 C19.485 36.059 16.241 39.791 11 42 C8.894 42.227 8.894 42.227 6.672 42.195 C5.873 42.189 5.073 42.182 4.25 42.176 C3.425 42.159 2.6 42.142 1.75 42.125 C0.91 42.116 0.069 42.107 -0.797 42.098 C-2.865 42.074 -4.932 42.038 -7 42 C-7 41.67 -7 41.34 -7 41 C-6.252 40.914 -5.505 40.827 -4.734 40.738 C3.279 39.595 3.279 39.595 6.5 36.938 C10.101 29.885 12.291 22.978 11 15 C8.787 8.428 6.119 4.273 0 1 C0 0.67 0 0.34 0 0 Z " fill="#F3F7FB" transform="translate(19,4)"/>
<path d="M0 0 C2.865 4.298 2.468 7.957 2 13 C0.737 19.175 -1.551 23.551 -6 28 C-10.35 29.45 -14.454 29.503 -19 29 C-23.772 26.51 -26.322 22.033 -28 17 C-27.67 16.34 -27.34 15.68 -27 15 C-25.153 16.847 -23.504 18.627 -21.875 20.688 C-18.375 23.503 -16.507 23.633 -12.141 23.344 C-7.386 22.58 -4.981 20.306 -2.188 16.562 C0.947 11.322 0.444 5.914 0 0 Z " fill="#2ECBFB" transform="translate(29,16)"/>
<path d="M0 0 C5.732 1.854 10.158 5.18 13.375 10.25 C16.45 16.806 15.289 24.948 15 32 C14.67 32 14.34 32 14 32 C13.986 31.322 13.972 30.644 13.957 29.945 C13.554 22.078 11.832 15.388 6.547 9.336 C3.376 6.482 0.088 5.071 -4 4 C-2.68 2.68 -1.36 1.36 0 0 Z " fill="#222958" transform="translate(26,1)"/>
<path d="M0 0 C6.823 0.897 11.521 2.641 16 8 C20.726 14.771 22.997 22.729 22 31 C19.996 33.383 19.996 33.383 18 35 C18.164 34.5 18.327 34 18.496 33.484 C19.188 30.074 19.105 26.713 19.062 23.25 C19.058 22.553 19.053 21.855 19.049 21.137 C19.037 19.424 19.019 17.712 19 16 C18.01 16 17.02 16 16 16 C12 9.25 12 9.25 12 7 C11.258 7.082 10.515 7.165 9.75 7.25 C6.158 6.923 5.304 5.688 3 3 C2.006 1.994 1.007 0.993 0 0 Z " fill="#B4BDCF" transform="translate(19,4)"/>
<path d="M0 0 C1.938 0.25 1.938 0.25 4 1 C6 4 6 4 5.625 6.188 C5.419 6.786 5.212 7.384 5 8 C3.188 8.688 3.188 8.688 1 9 C-0.812 7.875 -0.812 7.875 -2 6 C-1.579 1.579 -1.579 1.579 0 0 Z " fill="#E5E8EC" transform="translate(19,7)"/>
<path d="M0 0 C3.146 4.719 2.38 9.642 1.758 15.141 C1.375 17 1.375 17 0 20 C-3.125 21.438 -3.125 21.438 -6 22 C-5.567 21.417 -5.134 20.835 -4.688 20.234 C-0.022 13.365 0.761 8.205 0 0 Z " fill="#3088CA" transform="translate(29,16)"/>
<path d="M0 0 C0.99 0.33 1.98 0.66 3 1 C2.34 2.65 1.68 4.3 1 6 C0.34 6 -0.32 6 -1 6 C-1.33 7.32 -1.66 8.64 -2 10 C-2.66 10 -3.32 10 -4 10 C-3.521 5.781 -2.834 3.203 0 0 Z " fill="#1E2847" transform="translate(7,5)"/>
<path d="M0 0 C3.702 1.234 4.312 2.894 6.133 6.211 C7 8 7 8 8 11 C6.141 10.746 6.141 10.746 4 10 C2.734 8.223 2.734 8.223 1.75 6.062 C1.415 5.352 1.08 4.642 0.734 3.91 C-0 2 -0 2 0 0 Z " fill="#1F80CB" transform="translate(1,31)"/>
<path d="M0 0 C0.495 0.33 0.495 0.33 3 2 C3.221 4.951 3.281 7.684 3.188 10.625 C3.174 11.427 3.16 12.229 3.146 13.055 C3.111 15.037 3.057 17.018 3 19 C2.67 19 2.34 19 2 19 C1.97 18.649 1.97 18.649 1.816 16.875 C1.318 11.232 0.742 5.616 0 0 Z " fill="#0F1333" transform="translate(38,14)"/>
<path d="M0 0 C3.255 0.349 4.019 1.021 6.25 3.562 C6.828 4.367 7.405 5.171 8 6 C7.34 7.32 6.68 8.64 6 10 C2 4.25 2 4.25 2 2 C1.34 2 0.68 2 0 2 C0 1.34 0 0.68 0 0 Z " fill="#CBDAED" transform="translate(29,9)"/>
<path d="M0 0 C2.915 1.074 4.778 1.778 7 4 C3.674 5.761 2.408 6.108 -1.312 5.125 C-2.199 4.754 -3.086 4.383 -4 4 C-2.68 2.68 -1.36 1.36 0 0 Z " fill="#283360" transform="translate(26,1)"/>
<path d="M0 0 C4.62 0 9.24 0 14 0 C13.67 0.66 13.34 1.32 13 2 C10.03 2 7.06 2 4 2 C4.33 2.99 4.66 3.98 5 5 C3.35 4.67 1.7 4.34 0 4 C0 2.667 0 1.333 0 0 Z " fill="#1EAAE1" transform="translate(7,39)"/>
<path d="M0 0 C0.66 0.99 1.32 1.98 2 3 C-2.301 7.761 -2.301 7.761 -6 8 C-6.99 7.34 -7.98 6.68 -9 6 C-7.886 5.567 -6.773 5.134 -5.625 4.688 C-2 3 -2 3 0 0 Z " fill="#062F62" transform="translate(24,32)"/>
<path d="M0 0 C0.66 0 1.32 0 2 0 C2.382 1.656 2.714 3.325 3 5 C2.67 5.33 2.34 5.66 2 6 C1.632 8.328 1.298 10.662 1 13 C0.34 12.67 -0.32 12.34 -1 12 C-0.67 8.04 -0.34 4.08 0 0 Z " fill="#313956" transform="translate(1,16)"/>
<path d="M0 0 C1.938 0.25 1.938 0.25 4 1 C6 4 6 4 5.625 6.188 C5.419 6.786 5.212 7.384 5 8 C4.67 8 4.34 8 4 8 C4 6.35 4 4.7 4 3 C3.34 3.33 3.34 3.33 0 5 C-0.562 3.063 -0.562 3.063 -1 1 C-0.67 0.67 -0.34 0.34 0 0 Z " fill="#DADCE4" transform="translate(19,7)"/>
<path d="M0 0 C2.97 0 5.94 0 9 0 C9.33 0.66 9.66 1.32 10 2 C7.211 3.394 5.079 3.257 2 3 C1.34 2.01 0.68 1.02 0 0 Z " fill="#040C3B" transform="translate(17,1)"/>
<path d="M0 0 C1.32 0 2.64 0 4 0 C4.66 1.65 5.32 3.3 6 5 C5.01 5.66 4.02 6.32 3 7 C0 2.25 0 2.25 0 0 Z " fill="#191F46" transform="translate(34,10)"/>
<path d="M0 0 C2 3 2 3 1.75 5.5 C1 8 1 8 -1 11 C-1.027 9.542 -1.046 8.083 -1.062 6.625 C-1.074 5.813 -1.086 5.001 -1.098 4.164 C-1 2 -1 2 0 0 Z " fill="#041844" transform="translate(28,17)"/>
<path d="M0 0 C2.993 1.098 3.846 1.677 5.25 4.625 C5.497 5.409 5.745 6.192 6 7 C4.35 7.66 2.7 8.32 1 9 C1.206 8.258 1.413 7.515 1.625 6.75 C2.044 3.677 1.619 2.572 0 0 Z " fill="#283359" transform="translate(22,7)"/>
<path d="M0 0 C0.66 0.66 1.32 1.32 2 2 C1.01 3.32 0.02 4.64 -1 6 C-1.99 5.67 -2.98 5.34 -4 5 C-4 4.01 -4 3.02 -4 2 C-2.68 1.34 -1.36 0.68 0 0 Z " fill="#14B1F5" transform="translate(26,36)"/>
<path d="M0 0 C2.625 0.938 2.625 0.938 5 2 C4.67 2.66 4.34 3.32 4 4 C1.562 3.625 1.562 3.625 -1 3 C-1.33 2.34 -1.66 1.68 -2 1 C-1.34 0.67 -0.68 0.34 0 0 Z " fill="#053669" transform="translate(9,36)"/>
<path d="M0 0 C0.99 0 1.98 0 3 0 C2.67 1.65 2.34 3.3 2 5 C1.01 5 0.02 5 -1 5 C-0.67 3.35 -0.34 1.7 0 0 Z " fill="#0E2352" transform="translate(26,14)"/>
</svg>
