<?xml version="1.0" encoding="UTF-8"?>
<!-- Generator: visioncortex VTracer 0.6.12 -->
<svg version="1.1" xmlns="http://www.w3.org/2000/svg" width="152" height="129">
<path d="M0 0 C3.793 2.221 6.632 4.587 9.562 7.875 C12 10 12 10 15.25 9.938 C18 9 18 9 19 7 C19.66 7 20.32 7 21 7 C21.086 7.675 21.173 8.351 21.262 9.047 C21.402 9.939 21.543 10.831 21.688 11.75 C21.815 12.632 21.943 13.513 22.074 14.422 C23.316 17.881 24.948 19.004 28 21 C29.889 21.836 31.809 22.606 33.75 23.312 C45.752 28.175 54.971 37.528 61 49 C63.633 55.738 63.476 62.651 63.562 69.812 C63.587 70.423 63.587 70.423 63.713 73.51 C63.812 82.293 62.079 87.588 56 94 C53.113 96.516 53.113 96.516 50.312 98.25 C49.289 98.888 48.265 99.526 47.211 100.184 C43.056 102.534 38.827 104.669 34.496 106.676 C32.18 107.904 30.708 109.039 29 111 C29.307 111.271 29.307 111.271 30.863 112.645 C31.672 113.36 32.48 114.075 33.312 114.812 C34.113 115.52 34.914 116.228 35.738 116.957 C37.55 118.593 39.297 120.253 41 122 C40.67 122.99 40.34 123.98 40 125 C27.734 125.715 27.734 125.715 22 121 C20.39 120.057 18.764 119.142 17.125 118.25 C16.344 117.822 15.563 117.394 14.758 116.953 C14.468 116.796 14.468 116.796 13 116 C12.464 116.763 11.927 117.526 11.375 118.312 C8.09 122.03 5.461 123.688 0.473 124.32 C-6.477 124.6 -12.531 123.334 -19.099 121.248 C-20.71 120.752 -22.355 120.366 -24 120 C-24.66 120.66 -25.32 121.32 -26 122 C-28.495 122.442 -30.924 122.791 -33.438 123.062 C-40.672 123.891 -40.672 123.891 -44 125 C-46.228 125.069 -48.458 125.085 -50.688 125.062 C-51.867 125.053 -53.046 125.044 -54.262 125.035 C-55.165 125.024 -56.069 125.012 -57 125 C-57.188 120.203 -57.188 120.203 -55.5 118.375 C-52.109 116.51 -48.654 115.279 -45 114 C-49.39 111.308 -54.456 110.982 -59.449 110.232 C-66.622 109.075 -73.781 107.364 -79 102 C-83.245 96.034 -83.104 91.634 -82.782 84.425 C-82.677 78.9 -83.883 74.637 -86 69.562 C-88.375 63.844 -90.142 59.216 -89 53 C-88.932 52.608 -88.932 52.608 -88.59 50.625 C-86.045 39.84 -78.986 31.906 -70.012 25.773 C-65.812 23.301 -61.456 21.354 -56.945 19.52 C-52.579 17.267 -49.881 14.066 -46.781 10.316 C-34.622 -4.362 -17.393 -8.84 0 0 Z " fill="#FAF8F5" transform="translate(89,4)"/>
<path d="M0 0 C3.793 2.221 6.632 4.587 9.562 7.875 C12 10 12 10 15.25 9.938 C18 9 18 9 19 7 C19.66 7 20.32 7 21 7 C21.11 7.641 21.219 8.281 21.332 8.941 C22.325 14.356 23.625 19.033 26 24 C24.625 23.542 23.25 23.083 21.875 22.625 C21.464 22.489 21.464 22.489 19.387 21.801 C17.479 21.161 15.582 20.491 13.688 19.812 C11 19 11 19 7 19 C7 19.66 7 20.32 7 21 C8.65 21 10.3 21 12 21 C12 21.99 12 22.98 12 24 C12.66 24.33 13.32 24.66 14 25 C13.28 24.979 12.561 24.958 11.82 24.937 C-14.649 24.267 -14.649 24.267 -25 29 C-25.435 29.181 -25.435 29.181 -27.637 30.098 C-41.133 36.195 -51.368 46.775 -57.035 60.418 C-60.963 70.93 -61.532 81.109 -57.191 91.664 C-54.152 97.623 -48.337 101.211 -43 105 C-42.216 105.557 -41.432 106.114 -40.625 106.688 C-30.757 111.621 -20.373 112.064 -9.562 112.125 C-8.883 112.13 -8.204 112.135 -7.504 112.139 C2.747 112.107 11.626 110.896 21.25 107.25 C22.191 106.915 23.132 106.58 24.102 106.234 C32.667 103.067 39.424 99.15 44 91 C45.313 87.562 45.313 87.562 46 85 C46.66 85 47.32 85 48 85 C49.203 79.315 49.184 73.72 49.188 67.938 C49.2 66.957 49.212 65.977 49.225 64.967 C49.227 64.017 49.228 63.068 49.23 62.09 C49.235 61.233 49.239 60.375 49.243 59.492 C48.97 56.696 48.074 54.582 47 52 C47 51.01 47 50.02 47 49 C53.952 51.249 58.247 55.616 61.939 61.704 C63.783 65.696 63.831 69.534 63.75 73.875 C63.737 74.758 63.724 75.642 63.71 76.552 C63.438 82.732 62.488 87.192 58.309 91.969 C51.148 98.269 43.114 102.681 34.496 106.676 C32.18 107.904 30.708 109.039 29 111 C29.307 111.271 29.307 111.271 30.863 112.645 C31.672 113.36 32.48 114.075 33.312 114.812 C34.113 115.52 34.914 116.228 35.738 116.957 C37.55 118.593 39.297 120.253 41 122 C40.67 122.99 40.34 123.98 40 125 C27.734 125.715 27.734 125.715 22 121 C20.39 120.057 18.764 119.142 17.125 118.25 C16.344 117.822 15.563 117.394 14.758 116.953 C14.468 116.796 14.468 116.796 13 116 C12.464 116.763 11.927 117.526 11.375 118.312 C8.09 122.03 5.461 123.688 0.473 124.32 C-6.477 124.6 -12.531 123.334 -19.099 121.248 C-20.71 120.752 -22.355 120.366 -24 120 C-24.66 120.66 -25.32 121.32 -26 122 C-28.495 122.442 -30.924 122.791 -33.438 123.062 C-40.672 123.891 -40.672 123.891 -44 125 C-46.228 125.069 -48.458 125.085 -50.688 125.062 C-51.867 125.053 -53.046 125.044 -54.262 125.035 C-55.165 125.024 -56.069 125.012 -57 125 C-57.188 120.203 -57.188 120.203 -55.5 118.375 C-52.109 116.51 -48.654 115.279 -45 114 C-49.39 111.308 -54.456 110.982 -59.449 110.232 C-66.622 109.075 -73.781 107.364 -79 102 C-83.245 96.034 -83.104 91.634 -82.782 84.425 C-82.677 78.9 -83.883 74.637 -86 69.562 C-88.375 63.844 -90.142 59.216 -89 53 C-88.932 52.608 -88.932 52.608 -88.59 50.625 C-86.045 39.84 -78.986 31.906 -70.012 25.773 C-65.812 23.301 -61.456 21.354 -56.945 19.52 C-52.579 17.267 -49.881 14.066 -46.781 10.316 C-34.622 -4.362 -17.393 -8.84 0 0 Z " fill="#84EDE3" transform="translate(89,4)"/>
<path d="M0 0 C6.952 2.249 11.247 6.616 14.939 12.704 C16.783 16.696 16.831 20.534 16.75 24.875 C16.737 25.758 16.724 26.642 16.71 27.552 C16.438 33.732 15.488 38.192 11.309 42.969 C4.148 49.269 -3.886 53.681 -12.504 57.676 C-14.82 58.904 -16.292 60.039 -18 62 C-17.693 62.271 -17.693 62.271 -16.137 63.645 C-15.328 64.36 -14.52 65.075 -13.688 65.812 C-12.887 66.52 -12.086 67.228 -11.262 67.957 C-9.45 69.593 -7.703 71.253 -6 73 C-6.165 73.495 -6.165 73.495 -7 76 C-19.266 76.715 -19.266 76.715 -25 72 C-26.61 71.057 -28.236 70.142 -29.875 69.25 C-30.656 68.822 -31.437 68.394 -32.242 67.953 C-32.532 67.796 -32.532 67.796 -34 67 C-34.536 67.763 -35.073 68.526 -35.625 69.312 C-38.91 73.03 -41.539 74.688 -46.527 75.32 C-53.477 75.6 -59.531 74.334 -66.099 72.248 C-67.71 71.752 -69.355 71.366 -71 71 C-71.66 71.66 -72.32 72.32 -73 73 C-75.495 73.442 -77.924 73.791 -80.438 74.062 C-87.672 74.891 -87.672 74.891 -91 76 C-93.228 76.069 -95.458 76.085 -97.688 76.062 C-98.867 76.053 -100.046 76.044 -101.262 76.035 C-101.714 76.029 -101.714 76.029 -104 76 C-104.188 71.203 -104.188 71.203 -102.5 69.375 C-99.109 67.51 -95.654 66.279 -92 65 C-96.39 62.308 -101.456 61.982 -106.449 61.232 C-114.342 59.959 -122.105 58.011 -127.227 51.422 C-130.979 45.347 -130.422 38.818 -129 32 C-128.34 31.67 -127.68 31.34 -127 31 C-126.484 31.846 -125.969 32.691 -125.438 33.562 C-120.696 40.612 -114.497 45.355 -107.25 49.625 C-106.854 49.861 -106.854 49.861 -104.848 51.058 C-96.444 56.009 -88.929 60.414 -78.996 60.859 C-77 61 -77 61 -75 62 C-68.92 63.078 -62.72 63.102 -56.562 63.125 C-56.223 63.127 -56.223 63.127 -54.506 63.139 C-44.254 63.109 -35.374 61.896 -25.75 58.25 C-24.809 57.915 -23.868 57.58 -22.898 57.234 C-14.333 54.067 -7.576 50.15 -3 42 C-1.687 38.562 -1.687 38.562 -1 36 C-0.34 36 0.32 36 1 36 C2.203 30.315 2.184 24.72 2.188 18.938 C2.2 17.957 2.212 16.977 2.225 15.967 C2.227 15.017 2.228 14.068 2.23 13.09 C2.235 12.233 2.239 11.375 2.243 10.492 C1.97 7.696 1.074 5.582 0 3 C0 2.01 0 1.02 0 0 Z " fill="#104587" transform="translate(136,53)"/>
<path d="M0 0 C12.746 0.056 22.183 6.228 31 15 C29 15 27 15 25 15 C25.759 15.664 26.519 16.328 27.301 17.012 C28.305 17.903 29.309 18.795 30.312 19.688 C31.299 20.558 32.285 21.428 33.301 22.324 C35.792 24.794 37.472 26.86 39 30 C38.875 32.688 38.875 32.688 38 35 C35 37 35 37 32 37 C32 36.34 32 35.68 32 35 C31.34 35 30.68 35 30 35 C30.33 34.01 30.66 33.02 31 32 C26.334 23.551 17.154 19.606 8.352 16.863 C-4.998 13.749 -20.933 14.285 -33 21 C-34.114 21.598 -35.227 22.196 -36.375 22.812 C-44.44 29.533 -53.907 40.458 -55.285 51.229 C-55.402 53.66 -55.41 56.067 -55.375 58.5 C-55.387 59.316 -55.398 60.132 -55.41 60.973 C-55.38 67.309 -54.181 71.947 -50.438 77.188 C-47.328 79.499 -44.099 80.698 -40.484 82.051 C-37.532 83.179 -34.794 84.529 -32 86 C-32 86.66 -32 87.32 -32 88 C-31.432 87.977 -30.863 87.954 -30.277 87.93 C-25.078 87.808 -20.909 88.261 -16 90 C-15.67 90.33 -15.34 90.66 -15 91 C-12.984 91.234 -10.962 91.413 -8.938 91.562 C-8.385 91.604 -8.385 91.604 -5.59 91.816 C-4.735 91.877 -3.881 91.938 -3 92 C-3.99 92.33 -4.98 92.66 -6 93 C-6 93.66 -6 94.32 -6 95 C-26.029 95.209 -42.341 94.582 -57.938 80.312 C-58.278 79.931 -58.278 79.931 -60 78 C-60.268 77.711 -60.268 77.711 -61.625 76.25 C-66.645 68.036 -67.254 58.996 -65.309 49.695 C-60.744 33.462 -50.871 21.483 -36.512 12.914 C-28.478 8.535 -20.444 5.853 -11.262 5.902 C-10.195 5.906 -9.128 5.909 -8.029 5.912 C-7.478 5.916 -7.478 5.916 -4.688 5.938 C-3.565 5.942 -2.443 5.947 -1.287 5.951 C1.475 5.963 4.238 5.979 7 6 C7 5.01 7 4.02 7 3 C5.35 3 3.7 3 2 3 C2 2.34 2 1.68 2 1 C1.67 0.835 1.67 0.835 0 0 Z " fill="#E9F1FB" transform="translate(94,22)"/>
<path d="M0 0 C3.793 2.221 6.632 4.587 9.562 7.875 C12 10 12 10 15.25 9.938 C18 9 18 9 19 7 C19.66 7 20.32 7 21 7 C21.11 7.641 21.219 8.281 21.332 8.941 C22.325 14.356 23.625 19.033 26 24 C17 21 17 21 15.119 20.247 C8.552 17.758 2.35 17.491 -4.625 17.375 C-11.181 17.22 -17.505 16.947 -24 16 C-27.313 15.835 -30.62 15.815 -33.938 15.812 C-34.365 15.806 -34.365 15.806 -36.529 15.775 C-42.03 15.763 -46.719 16.452 -52 18 C-40.323 -0.864 -21.609 -10.983 0 0 Z " fill="#1C66BE" transform="translate(89,4)"/>
<path d="M0 0 C-0.66 1.98 -1.32 3.96 -2 6 C-0.515 5.835 -0.515 5.835 7 5 C4.346 6.769 1.986 7.782 -0.988 8.851 C-16.353 14.459 -27.564 24.075 -34.712 38.862 C-39.412 49.007 -40.968 59.259 -37.125 70 C-35.888 73.078 -34.516 76.05 -33 79 C-34.696 77.357 -36.353 75.691 -38 74 C-38.639 73.357 -39.279 72.714 -39.938 72.051 C-46.034 65.62 -50.993 58.011 -52 49 C-48.944 32.639 -37.439 18.239 -24 9 C-8.606 -0.191 -8.606 -0.191 0 0 Z " fill="#033881" transform="translate(68,23)"/>
<path d="M0 0 C15.946 6.468 28.969 13.937 37 30 C38.873 35.224 39.192 39.532 39 45 C38.722 44.639 38.722 44.639 37.312 42.812 C33.287 37.916 28.744 32.872 23 30 C23.489 31.091 23.977 32.181 24.48 33.305 C26.451 38.572 26.406 43.56 26.312 49.125 C26.314 49.606 26.314 49.606 26.322 52.043 C26.284 57.081 25.992 61.285 24 66 C23.34 66 22.68 66 22 66 C21.814 66.969 21.629 67.939 21.438 68.938 C19.561 75.439 14.955 81.138 9.188 84.625 C8.662 84.852 8.662 84.852 6 86 C5.34 85.67 4.68 85.34 4 85 C4.32 84.804 4.32 84.804 5.938 83.812 C8 82 8 82 8.438 79.688 C9.098 76.532 10.577 75.033 12.656 72.645 C17.402 66.836 18.581 61.55 18.336 54.098 C17.897 50.05 16.926 46.311 15.734 42.426 C14.893 39.645 14.389 36.877 14 34 C14.99 34.33 15.98 34.66 17 35 C19 33 19 33 19.125 30.438 C17.41 25.199 13.803 21.889 10 18 C9.459 17.443 8.917 16.886 8.359 16.312 C7.254 15.194 6.13 14.094 5 13 C5.99 13.165 5.99 13.165 11 14 C10.374 13.492 9.747 12.984 9.102 12.461 C8.284 11.773 7.467 11.084 6.625 10.375 C5.813 9.702 5.001 9.029 4.164 8.336 C1.699 5.676 0.907 3.478 0 0 Z " fill="#9BF3E7" transform="translate(113,23)"/>
<path d="M0 0 C0.495 0.66 0.99 1.32 1.5 2 C1.912 2.495 1.912 2.495 4 5 C4.467 5.57 4.933 6.14 5.414 6.727 C15.131 17.508 33.303 29.02 48 30 C48 30.33 48 30.66 48 31 C39.629 32.84 31.686 32.125 23.312 30.688 C22.962 30.629 22.962 30.629 21.19 30.331 C13.476 28.913 5.777 26.859 0.773 20.422 C-3.031 14.262 -2.188 7.917 -1 1 C-0.67 0.67 -0.34 0.34 0 0 Z " fill="#002D6A" transform="translate(8,84)"/>
<path d="M0 0 C0.66 0 1.32 0 2 0 C2.33 1.65 2.66 3.3 3 5 C3.727 5.086 4.454 5.173 5.203 5.262 C12.943 6.343 20.106 8.216 27 12 C27.66 12.99 28.32 13.98 29 15 C29.99 15.66 30.98 16.32 32 17 C28.98 17.196 25.959 17.382 22.938 17.562 C22.09 17.619 21.242 17.675 20.369 17.732 C15.384 18.021 10.955 17.72 6 17 C1.853 16.875 -2.29 16.905 -6.438 16.938 C-7.551 16.942 -8.664 16.947 -9.811 16.951 C-12.54 16.963 -15.27 16.979 -18 17 C-17.34 16.34 -16.68 15.68 -16 15 C-15.773 14.258 -15.546 13.515 -15.312 12.75 C-13.184 8.29 -9.58 5.055 -4.984 3.176 C-3.343 2.705 -1.673 2.341 0 2 C0 1.34 0 0.68 0 0 Z " fill="#063A82" transform="translate(59,3)"/>
<path d="M0 0 C-1.32 0.33 -2.64 0.66 -4 1 C-3.361 1.949 -2.721 2.897 -2.062 3.875 C0 7 0 7 1 9 C0.443 8.897 0.443 8.897 -2.375 8.375 C-3.571 8.251 -4.767 8.127 -6 8 C-6.66 8.66 -7.32 9.32 -8 10 C-10.495 10.442 -12.924 10.791 -15.438 11.062 C-22.672 11.891 -22.672 11.891 -26 13 C-28.228 13.069 -30.458 13.085 -32.688 13.062 C-33.277 13.058 -33.277 13.058 -36.262 13.035 C-37.165 13.024 -38.069 13.012 -39 13 C-39.188 8.203 -39.188 8.203 -37.5 6.375 C-34.109 4.51 -30.654 3.279 -27 2 C-27.66 1.34 -28.32 0.68 -29 0 C-18.638 -2.076 -10.329 -1.881 0 0 Z " fill="#2DBBD7" transform="translate(71,116)"/>
<path d="M0 0 C0.66 0.33 1.32 0.66 2 1 C2.33 1.99 2.66 2.98 3 4 C3.99 4.66 4.98 5.32 6 6 C6.372 8.151 6.372 8.151 6.363 10.797 C6.363 11.756 6.362 12.715 6.361 13.703 C6.345 14.709 6.329 15.714 6.312 16.75 C6.314 17.245 6.314 17.245 6.322 19.75 C6.285 24.88 6.047 29.205 4 34 C3.34 34 2.68 34 2 34 C1.814 34.969 1.629 35.939 1.438 36.938 C-0.439 43.439 -5.045 49.138 -10.812 52.625 C-11.338 52.852 -11.338 52.852 -14 54 C-14.66 53.67 -15.32 53.34 -16 53 C-15.68 52.804 -15.68 52.804 -14.062 51.812 C-12 50 -12 50 -11.562 47.688 C-10.902 44.532 -9.423 43.033 -7.344 40.645 C-2.598 34.836 -1.419 29.55 -1.664 22.098 C-2.103 18.05 -3.074 14.311 -4.266 10.426 C-5.107 7.645 -5.611 4.877 -6 2 C-5.01 2.33 -4.02 2.66 -3 3 C-2.01 2.01 -1.02 1.02 0 0 Z " fill="#DEEDFA" transform="translate(133,55)"/>
<path d="M0 0 C0.99 0.33 1.98 0.66 3 1 C4.141 3.406 4.141 3.406 5.25 6.5 C7.652 12.591 10.757 17.071 15 22 C15.445 22.576 15.889 23.152 16.348 23.746 C19.17 27.386 22.087 29.609 26 32 C27.875 33.208 29.75 34.416 31.625 35.625 C34.689 37.59 37.71 39.44 41 41 C35.72 41.448 32.073 39.973 27.5 37.562 C26.805 37.203 26.11 36.844 25.394 36.474 C14.289 30.63 4.517 24.364 -4 15 C-4.559 14.486 -5.119 13.971 -5.695 13.441 C-7.69 11.238 -7.68 8.877 -8 6 C-6.68 6 -5.36 6 -4 6 C-1.75 3 -1.75 3 0 0 Z " fill="#25B7F8" transform="translate(14,73)"/>
<path d="M0 0 C-0.66 1.98 -1.32 3.96 -2 6 C-0.515 5.835 -0.515 5.835 7 5 C4.346 6.769 1.986 7.782 -0.988 8.851 C-12.866 13.186 -22.194 19.913 -30 30 C-30.66 29.34 -31.32 28.68 -32 28 C-31.625 25.625 -31.625 25.625 -31 23 C-31 21.68 -31 20.36 -31 19 C-31.99 19.66 -32.98 20.32 -34 21 C-34.33 20.01 -34.66 19.02 -35 18 C-25.564 9.525 -13.213 -0.294 0 0 Z M-35 21 C-34.67 21.99 -34.34 22.98 -34 24 C-34.33 24.165 -34.33 24.165 -36 25 C-35.67 23.68 -35.34 22.36 -35 21 Z " fill="#168CEE" transform="translate(68,23)"/>
<path d="M0 0 C2.893 3.535 5.564 7.155 8.125 10.938 C8.808 11.937 9.491 12.936 10.195 13.965 C13.431 19.406 14.838 24.672 14 31 C13.186 33.488 12.176 35.648 11 38 C9.68 37.67 8.36 37.34 7 37 C6.885 37.271 6.885 37.271 6.301 38.645 C4.23 43.186 2.763 45.883 -2 48 C-1.587 43.543 -0.943 39.649 0.523 35.418 C2.251 29.783 2.413 24.546 2.312 18.688 C2.314 18.206 2.314 18.206 2.322 15.771 C2.286 11.033 2.103 7.332 0 3 C0 2.01 0 1.02 0 0 Z " fill="#022C69" transform="translate(136,53)"/>
<path d="M0 0 C0.784 0.144 1.567 0.289 2.375 0.438 C9.598 1.558 16.818 1.277 24 0 C24.501 6.142 23.485 9.103 20 14 C17.04 16.48 15.355 16.962 11.5 17.375 C7.715 16.969 5.947 16.374 3 14 C-0.115 9.438 -1.236 6.539 -1 1 C-0.67 0.67 -0.34 0.34 0 0 Z " fill="#3B2337" transform="translate(72,87)"/>
<path d="M0 0 C5.135 3.15 8.747 6.913 12.438 11.645 C12.108 12.305 11.778 12.965 11.438 13.645 C10.725 13.041 10.012 12.438 9.277 11.816 C-4.152 0.61 -15.778 -3.717 -33.562 -2.355 C-38.947 -1.612 -44.257 -0.527 -49.562 0.645 C-49.892 3.615 -50.222 6.585 -50.562 9.645 C-53.532 10.305 -56.502 10.965 -59.562 11.645 C-59.562 12.305 -59.562 12.965 -59.562 13.645 C-60.222 13.645 -60.883 13.645 -61.562 13.645 C-61.892 12.985 -62.222 12.325 -62.562 11.645 C-63.553 11.645 -64.542 11.645 -65.562 11.645 C-59.957 4.226 -54.154 0.139 -45.562 -3.355 C-44.69 -3.731 -43.817 -4.106 -42.918 -4.492 C-29.266 -8.004 -12.435 -6.578 0 0 Z " fill="#D6E2F6" transform="translate(113.5625,42.35546875)"/>
<path d="M0 0 C4.62 0.165 4.62 0.165 28 1 C27.67 2.32 27.34 3.64 27 5 C28.65 5 30.3 5 32 5 C32 5.99 32 6.98 32 8 C32.66 8.33 33.32 8.66 34 9 C21.79 9 9.58 9 -3 9 C-2.67 7.35 -2.34 5.7 -2 4 C-2.66 3.34 -3.32 2.68 -4 2 C-2.68 2 -1.36 2 0 2 C0 1.34 0 0.68 0 0 Z " fill="#39B6F9" transform="translate(69,20)"/>
<path d="M0 0 C4.479 0.562 7.372 2.297 11.125 4.75 C18.871 9.675 26.657 14.377 36 15 C36 15.33 36 15.66 36 16 C28.523 17.701 20.5 17.596 13 16 C12.34 15.34 11.68 14.68 11 14 C8.166 13.176 5.311 12.534 2.434 11.879 C1.631 11.589 0.827 11.299 0 11 C-1.114 7.658 -0.754 6.35 0 3 C0 2.01 0 1.02 0 0 Z " fill="#01285E" transform="translate(20,99)"/>
<path d="M0 0 C-0.66 0.66 -1.32 1.32 -2 2 C-1.693 2.271 -1.693 2.271 -0.137 3.645 C0.672 4.36 1.48 5.075 2.312 5.812 C3.113 6.52 3.914 7.228 4.738 7.957 C6.55 9.593 8.297 11.253 10 13 C9.67 13.99 9.34 14.98 9 16 C-3.266 16.715 -3.266 16.715 -9 12 C-10.61 11.057 -12.236 10.142 -13.875 9.25 C-14.656 8.822 -15.437 8.394 -16.242 7.953 C-16.822 7.639 -17.402 7.324 -18 7 C-18.99 7.99 -19.98 8.98 -21 10 C-20.67 7.69 -20.34 5.38 -20 3 C-14.359 4.217 -12.048 5.733 -8 10 C-5.688 10.812 -5.688 10.812 -4 11 C-4 10.34 -4 9.68 -4 9 C-4.99 8.67 -5.98 8.34 -7 8 C-6.01 8 -5.02 8 -4 8 C-4 6.35 -4 4.7 -4 3 C-5.65 3 -7.3 3 -9 3 C-9 2.34 -9 1.68 -9 1 C-5.574 -0.618 -3.619 -1.341 0 0 Z " fill="#72CBDE" transform="translate(120,113)"/>
<path d="M0 0 C0.66 0.33 1.32 0.66 2 1 C2.058 4.542 2.094 8.083 2.125 11.625 C2.133 12.125 2.133 12.125 2.176 14.652 C2.21 19.841 2.103 24.149 0 29 C-0.66 29 -1.32 29 -2 29 C-2.186 29.969 -2.371 30.939 -2.562 31.938 C-4.439 38.439 -9.045 44.138 -14.812 47.625 C-15.338 47.852 -15.338 47.852 -18 49 C-18.66 48.67 -19.32 48.34 -20 48 C-19.68 47.804 -19.68 47.804 -18.062 46.812 C-16 45 -16 45 -15.562 42.688 C-14.908 39.559 -13.502 38.082 -11.395 35.75 C-9.25 33.059 -7.822 30.031 -6.309 26.953 C-5 25 -5 25 -2.91 24.109 C-1 23 -1 23 -0.254 20.43 C0.051 16.315 0.108 12.249 0.062 8.125 C0.058 7.341 0.053 6.558 0.049 5.75 C0.037 3.833 0.019 1.917 0 0 Z " fill="#8FC3EB" transform="translate(137,60)"/>
<path d="M0 0 C9.9 0 19.8 0 30 0 C28 4 28 4 25.852 5.215 C22.327 6.185 19.026 6.393 15.375 6.562 C8.289 6.904 8.289 6.904 5 8 C0 2.25 0 2.25 0 0 Z " fill="#07255B" transform="translate(67,117)"/>
<path d="M0 0 C5.795 2.445 9.392 4.801 13 10 C13.667 11.667 14.333 13.333 15 15 C15.412 15.495 15.412 15.495 17.5 18 C20.553 21.664 22 24.226 22 29 C22.66 29.33 23.32 29.66 24 30 C24 32.31 24 34.62 24 37 C21.095 35.548 20.833 33.522 19.562 30.562 C16.057 23.262 11.226 19.008 5 14 C6.32 13.67 7.64 13.34 9 13 C9 12.67 9 12.34 9 12 C7.888 11.088 6.76 10.195 5.625 9.312 C2.3 6.538 0.926 4.321 0 0 Z " fill="#6FCBFA" transform="translate(113,23)"/>
<path d="M0 0 C0.736 0.251 1.472 0.503 2.23 0.762 C1.797 1.257 1.797 1.257 -0.395 3.762 C-8.253 13.004 -15.034 22.726 -17.77 34.762 C-20.237 32.294 -20.206 31.314 -20.395 27.887 C-20.246 20.305 -16.361 15.508 -11.77 9.762 C-10.991 8.767 -10.212 7.771 -9.41 6.746 C-3.541 -0.305 -3.541 -0.305 0 0 Z " fill="#4FCBD3" transform="translate(34.76953125,37.23828125)"/>
<path d="M0 0 C0.608 0.113 0.608 0.113 3.688 0.688 C8.276 2.506 8.965 4.604 11 9 C8.914 8.771 6.831 8.516 4.75 8.25 C3.59 8.111 2.43 7.972 1.234 7.828 C-2.383 6.902 -3.781 5.967 -6 3 C-6 2.01 -6 1.02 -6 0 C-6.66 0 -7.32 0 -8 0 C-7.67 0.99 -7.34 1.98 -7 3 C-7.29 3.079 -7.29 3.079 -8.758 3.48 C-14.275 5.128 -17.957 6.859 -22 11 C-23.375 13.812 -23.375 13.812 -24 16 C-24.66 16 -25.32 16 -26 16 C-26 16.66 -26 17.32 -26 18 C-27.32 18.33 -28.64 18.66 -30 19 C-23.71 8.839 -13.597 -5.901 0 0 Z " fill="#1358AB" transform="translate(67,3)"/>
<path d="M0 0 C2.828 2.378 3.776 3.804 4.75 7.312 C5.74 7.312 6.73 7.312 7.75 7.312 C7.09 8.632 6.43 9.953 5.75 11.312 C3.206 10.182 1.511 9.093 -0.562 7.188 C-4.102 4.718 -6.008 4.717 -10.25 5.312 C-13.5 7.188 -13.5 7.188 -16.25 9.312 C-17.24 9.972 -18.23 10.632 -19.25 11.312 C-18.816 6.39 -16.606 3.825 -13.25 0.312 C-8.841 -2.817 -4.676 -2.428 0 0 Z " fill="#121C40" transform="translate(118.25,69.6875)"/>
<path d="M0 0 C12.746 0.056 22.183 6.228 31 15 C30.01 15 29.02 15 28 15 C27.238 15.059 26.476 15.119 25.691 15.18 C22.23 14.949 19.995 13.741 16.938 12.125 C15.915 11.591 14.893 11.058 13.84 10.508 C12.903 10.01 11.966 9.513 11 9 C9.669 8.329 8.337 7.66 7 7 C7 5.68 7 4.36 7 3 C5.35 3 3.7 3 2 3 C2 2.34 2 1.68 2 1 C1.34 0.67 0.68 0.34 0 0 Z " fill="#82CBFC" transform="translate(94,22)"/>
<path d="M0 0 C3 2.5 3 2.5 5 5 C0.253 9.905 0.253 9.905 -4.312 10.25 C-8.226 9.985 -9.932 9.367 -13 7 C-13.66 6.01 -14.32 5.02 -15 4 C-14.34 4 -13.68 4 -13 4 C-13 3.34 -13 2.68 -13 2 C-8.78 -0.11 -4.644 -0.964 0 0 Z " fill="#C0453D" transform="translate(88,94)"/>
<path d="M0 0 C4.57 1.958 7.127 5.059 10 9 C10 9.99 10 10.98 10 12 C7.781 10.97 6.087 10.084 4.312 8.375 C0.694 6.223 -2.906 6.171 -7 7 C-9.812 9.562 -9.812 9.562 -12 12 C-14.312 11.812 -14.312 11.812 -16 11 C-12.623 3.403 -8.567 -0.739 0 0 Z " fill="#151E3C" transform="translate(59,69)"/>
<path d="M0 0 C3.061 0.328 3.894 0.869 5.875 3.312 C6.576 4.199 7.278 5.086 8 6 C9.979 7.448 11.917 8.722 14 10 C15.875 11.208 17.75 12.417 19.625 13.625 C22.689 15.59 25.71 17.44 29 19 C23.401 19.515 19.925 17.864 15.125 15.312 C14.42 14.947 13.716 14.582 12.99 14.206 C-0.643 7.072 -0.643 7.072 -2 3 C-1.34 2.01 -0.68 1.02 0 0 Z " fill="#089BF1" transform="translate(26,95)"/>
<path d="M0 0 C0.99 0.33 1.98 0.66 3 1 C1.123 6.204 -3.088 7.365 -7.816 9.602 C-19.137 14.574 -19.137 14.574 -24 13 C-22.342 9.157 -21.332 8.135 -17.383 6.523 C-15.969 6.122 -14.549 5.739 -13.125 5.375 C-5.548 3.332 -5.548 3.332 -2.18 1.289 C-1.46 0.864 -0.741 0.438 0 0 Z " fill="#DEECFB" transform="translate(119,102)"/>
<path d="M0 0 C2.366 3.55 2.065 4.617 1.75 8.75 C1.652 13.262 1.898 15.729 4.875 19.188 C6.564 20.865 7.868 21.934 10 23 C10 23.66 10 24.32 10 25 C15.28 26.32 20.56 27.64 26 29 C26 29.33 26 29.66 26 30 C17.871 30.614 11.051 28.413 4.062 24.25 C0.167 20.001 -1.956 16.521 -2.059 10.625 C-1.423 1.423 -1.423 1.423 0 0 Z " fill="#064596" transform="translate(8,84)"/>
<path d="M0 0 C6.557 3.747 12.271 7.712 15 15 C15.4 19.369 15.3 23.627 15 28 C13.256 25.384 12.438 23.534 11.438 20.625 C9.374 15.263 6.37 10.893 2.998 6.292 C0 2.181 0 2.181 0 0 Z " fill="#1761B3" transform="translate(137,53)"/>
<path d="M0 0 C-1.312 2 -1.312 2 -3 4 C-3.99 4 -4.98 4 -6 4 C-6 4.66 -6 5.32 -6 6 C-4.35 6 -2.7 6 -1 6 C-1 8.64 -1 11.28 -1 14 C-1.99 14.33 -2.98 14.66 -4 15 C-4.516 14.237 -5.031 13.474 -5.562 12.688 C-8.458 9.495 -10.956 8.397 -15 7 C-15.99 7 -16.98 7 -18 7 C-18 6.34 -18 5.68 -18 5 C-15.378 3.97 -12.753 2.951 -10.125 1.938 C-9.379 1.643 -8.632 1.348 -7.863 1.045 C-2.227 -1.113 -2.227 -1.113 0 0 Z " fill="#2186CF" transform="translate(117,110)"/>
<path d="M0 0 C0.66 0 1.32 0 2 0 C2.11 0.641 2.219 1.281 2.332 1.941 C3.325 7.356 4.625 12.033 7 17 C5.783 16.587 4.566 16.175 3.312 15.75 C-2.758 13.723 -8.878 11.864 -15 10 C-15 9.67 -15 9.34 -15 9 C-6.571 7.714 -6.571 7.714 -2 9 C-2.041 8.072 -2.082 7.144 -2.125 6.188 C-2 3 -2 3 0 0 Z " fill="#123B7E" transform="translate(108,11)"/>
<path d="M0 0 C4.95 0 9.9 0 15 0 C14.67 1.32 14.34 2.64 14 4 C15.65 4 17.3 4 19 4 C19 4.99 19 5.98 19 7 C19.66 7.33 20.32 7.66 21 8 C14.73 7.67 8.46 7.34 2 7 C2 5.02 2 3.04 2 1 C1.34 0.67 0.68 0.34 0 0 Z " fill="#70C7FA" transform="translate(82,21)"/>
<path d="M0 0 C0.33 0 0.66 0 1 0 C1.66 3.3 2.32 6.6 3 10 C3.33 10 3.66 10 4 10 C4.626 16.888 2.358 22.589 0 29 C-1.65 29.33 -3.3 29.66 -5 30 C-4.723 29.007 -4.446 28.015 -4.16 26.992 C-1.712 17.92 -0.295 9.429 0 0 Z " fill="#021A4B" transform="translate(140,65)"/>
<path d="M0 0 C2.159 2.077 3.601 4.363 5 7 C3.886 6.794 2.773 6.588 1.625 6.375 C0.429 6.251 -0.767 6.127 -2 6 C-2.66 6.66 -3.32 7.32 -4 8 C-7.625 8.125 -7.625 8.125 -11 8 C-11.33 6.02 -11.66 4.04 -12 2 C-8.367 -0.422 -4.205 -1.141 0 0 Z " fill="#ADCBF0" transform="translate(67,118)"/>
<path d="M0 0 C8.775 3.259 8.775 3.259 11.188 6.688 C12.152 9.432 12.769 12.207 13.422 15.039 C14 17 14 17 15.688 19.812 C15.904 20.173 15.904 20.173 17 22 C16.67 22.99 16.34 23.98 16 25 C12.769 22.846 12.449 22.193 11.125 18.75 C9.843 15.673 8.586 13.247 6.375 10.75 C4.112 8.13 3.13 6.215 2 3 C1.34 2.01 0.68 1.02 0 0 Z " fill="#89EFE3" transform="translate(122,29)"/>
<path d="M0 0 C4.248 0.472 6.2 2.967 9 6 C8.67 6.99 8.34 7.98 8 9 C4.04 9 0.08 9 -4 9 C-4 7.68 -4 6.36 -4 5 C-2 3.375 -2 3.375 0 2 C0 1.34 0 0.68 0 0 Z " fill="#A1F4E7" transform="translate(121,120)"/>
<path d="M0 0 C8.12 0.451 14.823 3.1 20.875 8.625 C21.576 9.409 22.278 10.193 23 11 C25.46 13.229 26.406 13.96 29.75 14.188 C30.493 14.126 31.235 14.064 32 14 C32 15.98 32 17.96 32 20 C26.49 17.457 22.256 14.262 17.938 10.062 C12.675 5.241 6.714 3.158 0 1 C0 0.67 0 0.34 0 0 Z " fill="#498FE9" transform="translate(74,0)"/>
<path d="M0 0 C-0.33 2.31 -0.66 4.62 -1 7 C-3.97 7.66 -6.94 8.32 -10 9 C-10 9.66 -10 10.32 -10 11 C-10.66 11 -11.32 11 -12 11 C-12.33 10.34 -12.66 9.68 -13 9 C-13.99 9 -14.98 9 -16 9 C-14.612 7.7 -13.214 6.41 -11.812 5.125 C-11.035 4.406 -10.258 3.686 -9.457 2.945 C-3.516 -1.758 -3.516 -1.758 0 0 Z " fill="#EEF0F5" transform="translate(64,45)"/>
<path d="M0 0 C0.693 0.1 1.386 0.2 2.1 0.303 C3.797 0.549 5.492 0.804 7.188 1.062 C3.842 2.995 0.74 3.609 -3.062 4.188 C-4.14 4.355 -5.218 4.523 -6.328 4.695 C-7.148 4.816 -7.968 4.938 -8.812 5.062 C-8.483 7.043 -8.153 9.023 -7.812 11.062 C-8.472 11.062 -9.133 11.062 -9.812 11.062 C-9.812 10.403 -9.812 9.743 -9.812 9.062 C-11.462 9.062 -13.112 9.062 -14.812 9.062 C-14.153 8.073 -13.492 7.082 -12.812 6.062 C-12.153 6.062 -11.492 6.062 -10.812 6.062 C-10.483 4.743 -10.153 3.422 -9.812 2.062 C-10.803 1.403 -11.792 0.743 -12.812 0.062 C-8.385 -1.167 -4.464 -0.688 0 0 Z " fill="#2283BF" transform="translate(63.8125,114.9375)"/>
<path d="M0 0 C1.309 4.403 1.309 4.403 0.062 6.812 C-3.232 8.709 -6.242 8.185 -10 8 C-10.25 5.688 -10.25 5.688 -10 3 C-7.002 -0.344 -4.322 -0.295 0 0 Z " fill="#59DDD7" transform="translate(42,121)"/>
<path d="M0 0 C2.125 0.375 2.125 0.375 4 1 C4 2.32 4 3.64 4 5 C-3.068 8.911 -8.863 11.729 -17 12 C-13.032 8.561 -8.733 5.986 -4.207 3.367 C-2 2 -2 2 0 0 Z " fill="#062563" transform="translate(129,101)"/>
<path d="M0 0 C6.831 2.881 10.976 5.855 14.312 12.688 C15 15 15 15 15 18 C12.775 15.775 10.551 13.55 8.332 11.32 C7.012 10.007 5.683 8.703 4.324 7.43 C1.752 5.017 0.691 3.431 0 0 Z " fill="#66DADE" transform="translate(113,23)"/>
<path d="M0 0 C0 0.66 0 1.32 0 2 C-0.722 2.413 -1.444 2.825 -2.188 3.25 C-7.14 6.331 -10.211 10.472 -12 16 C-12.66 15.01 -13.32 14.02 -14 13 C-14.99 13.66 -15.98 14.32 -17 15 C-17.33 14.01 -17.66 13.02 -18 12 C-16.274 10.558 -14.544 9.122 -12.812 7.688 C-11.85 6.887 -10.887 6.086 -9.895 5.262 C-3.161 0 -3.161 0 0 0 Z M-18 15 C-17.67 15.99 -17.34 16.98 -17 18 C-17.33 18.165 -17.33 18.165 -19 19 C-18.67 17.68 -18.34 16.36 -18 15 Z " fill="#0C70CD" transform="translate(51,29)"/>
<path d="M0 0 C0.66 0.99 1.32 1.98 2 3 C1.67 3.495 1.67 3.495 0 6 C-4.346 6.395 -6.32 6.453 -10 4 C-10.33 3.01 -10.66 2.02 -11 1 C-7.235 -1.56 -4.306 -1.037 0 0 Z " fill="#E35845" transform="translate(87,98)"/>
<path d="M0 0 C5.234 0.643 7.951 2.581 11.375 6.438 C13.562 9.438 13.562 9.438 13.562 12.438 C10.2 10.996 7.933 9.232 5.562 6.438 C5.562 5.448 5.562 4.457 5.562 3.438 C1.088 3.348 -3.043 3.58 -7.438 4.438 C-5.039 1.367 -3.938 0.501 0 0 Z " fill="#1F274D" transform="translate(55.4375,68.5625)"/>
<path d="M0 0 C2.563 3.845 2.591 5.422 2 10 C0.251 13.198 -1.793 16.104 -4 19 C-5.32 18.67 -6.64 18.34 -8 18 C-7.67 15.36 -7.34 12.72 -7 10 C-6.67 10.66 -6.34 11.32 -6 12 C-5.01 12 -4.02 12 -3 12 C-2.01 8.04 -1.02 4.08 0 0 Z " fill="#09428C" transform="translate(150,78)"/>
<path d="M0 0 C0.66 0.33 1.32 0.66 2 1 C2 1.99 2 2.98 2 4 C1.71 4.079 1.71 4.079 0.242 4.48 C-5.275 6.128 -8.957 7.859 -13 12 C-14.375 14.812 -14.375 14.812 -15 17 C-15.66 17 -16.32 17 -17 17 C-17 17.66 -17 18.32 -17 19 C-18.32 19.33 -19.64 19.66 -21 20 C-15.42 10.986 -10.008 4.071 0 0 Z " fill="#0B50A2" transform="translate(58,2)"/>
<path d="M0 0 C5.28 0.66 10.56 1.32 16 2 C15.01 2.33 14.02 2.66 13 3 C13 3.66 13 4.32 13 5 C10.229 5.081 7.46 5.14 4.688 5.188 C3.902 5.213 3.116 5.238 2.307 5.264 C1.549 5.273 0.792 5.283 0.012 5.293 C-0.685 5.309 -1.381 5.324 -2.099 5.341 C-4.545 4.902 -5.427 3.866 -7 2 C-4.69 2 -2.38 2 0 2 C0 1.34 0 0.68 0 0 Z " fill="#D4E4F7" transform="translate(75,112)"/>
<path d="M0 0 C7.92 0.33 15.84 0.66 24 1 C24 1.33 24 1.66 24 2 C22.868 2.037 21.736 2.075 20.57 2.113 C19.089 2.179 17.607 2.245 16.125 2.312 C15.752 2.324 15.752 2.324 13.863 2.381 C11.9 2.478 9.947 2.73 8 3 C7.67 3.495 7.67 3.495 6 6 C6.66 6.66 7.32 7.32 8 8 C4.825 7.66 3.977 6.975 1.75 4.562 C0 2 0 2 0 0 Z " fill="#07194B" transform="translate(67,117)"/>
<path d="M0 0 C0 0.99 0 1.98 0 3 C-3.473 4.158 -6.361 4.069 -10 4 C-10 3.67 -10 3.34 -10 3 C-10.638 2.951 -11.276 2.902 -11.934 2.852 C-12.76 2.777 -13.586 2.702 -14.438 2.625 C-15.261 2.555 -16.085 2.486 -16.934 2.414 C-17.616 2.277 -18.297 2.141 -19 2 C-19.33 1.34 -19.66 0.68 -20 0 C-17.229 -0.195 -14.459 -0.381 -11.688 -0.562 C-10.902 -0.619 -10.116 -0.675 -9.307 -0.732 C-8.928 -0.757 -8.928 -0.757 -7.012 -0.879 C-6.315 -0.926 -5.619 -0.973 -4.901 -1.022 C-3 -1 -3 -1 0 0 Z " fill="#E9F0FA" transform="translate(98,112)"/>
<path d="M0 0 C0.66 0 1.32 0 2 0 C3 3 3 3 2.074 5.234 C1.617 6.065 1.159 6.895 0.688 7.75 C-1.461 11.819 -2.932 15.535 -4 20 C-6 18 -6 18 -6.438 14.875 C-5.944 10.501 -4.67 8.327 -2.191 4.797 C-1 3 -1 3 0 0 Z " fill="#44C9D3" transform="translate(21,52)"/>
<path d="M0 0 C8.209 1.986 13.191 5.926 19 12 C19.33 12.66 19.66 13.32 20 14 C18.062 13.687 18.062 13.687 16 13 C15.67 12.01 15.34 11.02 15 10 C14.216 9.856 13.433 9.711 12.625 9.562 C10 9 10 9 8 8 C8 7.01 8 6.02 8 5 C7.051 4.732 6.103 4.464 5.125 4.188 C2 3 2 3 0 0 Z " fill="#317DDC" transform="translate(78,2)"/>
<path d="M0 0 C0.33 0 0.66 0 1 0 C1.235 5.237 0.562 9.253 -1.188 14.188 C-1.594 15.377 -2 16.567 -2.418 17.793 C-4.138 21.28 -5.812 22.841 -9 25 C-9.688 23.188 -9.688 23.188 -10 21 C-8.688 19.25 -8.688 19.25 -7 18 C-6.34 18 -5.68 18 -5 18 C-4.348 16.127 -3.704 14.251 -3.062 12.375 C-2.703 11.331 -2.343 10.287 -1.973 9.211 C-1.042 6.14 -0.453 3.173 0 0 Z " fill="#01265B" transform="translate(144,76)"/>
<path d="M0 0 C5.454 1.176 8.372 2.492 12 7 C12 7.99 12 8.98 12 10 C8.667 8 5.333 6 2 4 C1.01 4.99 0.02 5.98 -1 7 C-0.67 4.69 -0.34 2.38 0 0 Z " fill="#B1D1F0" transform="translate(100,116)"/>
<path d="M0 0 C4.162 0.48 7.29 1.145 11 3 C13.325 3.387 15.659 3.73 18 4 C18 4.33 18 4.66 18 5 C15.604 5.054 13.209 5.094 10.812 5.125 C10.476 5.133 10.476 5.133 8.771 5.176 C4.712 5.215 1.65 4.8 -2 3 C-1.34 2.01 -0.68 1.02 0 0 Z " fill="#051443" transform="translate(38,110)"/>
<path d="M0 0 C1.333 0.667 2.667 1.333 4 2 C5.666 2.04 7.334 2.044 9 2 C8.424 2.278 7.848 2.557 7.254 2.844 C5.068 3.965 3.013 5.188 0.938 6.5 C0.266 6.923 -0.406 7.346 -1.098 7.781 C-2.744 8.836 -4.373 9.916 -6 11 C-5.555 5.96 -3.287 3.624 0 0 Z " fill="#131E46" transform="translate(105,70)"/>
<path d="M0 0 C4.529 2.688 8.953 5.525 13.379 8.379 C15.549 9.721 17.696 10.91 20 12 C15.321 12.278 12.324 11.548 8.125 9.5 C7.158 9.036 6.191 8.572 5.195 8.094 C4.471 7.733 3.746 7.372 3 7 C3 6.01 3 5.02 3 4 C2.01 3.34 1.02 2.68 0 2 C0 1.34 0 0.68 0 0 Z " fill="#1D62B4" transform="translate(35,102)"/>
<path d="M0 0 C2.361 0.254 4.715 0.578 7.062 0.938 C8.353 1.132 9.643 1.327 10.973 1.527 C11.972 1.683 12.971 1.839 14 2 C11.1 3.659 9.084 4.236 5.75 4.125 C5.131 4.104 5.131 4.104 2 4 C1.67 5.32 1.34 6.64 1 8 C0.34 7.67 -0.32 7.34 -1 7 C-1.043 5 -1.041 3 -1 1 C-0.67 0.67 -0.34 0.34 0 0 Z " fill="#3B2A42" transform="translate(72,87)"/>
<path d="M0 0 C1.675 0.286 3.344 0.618 5 1 C3.68 2.32 2.36 3.64 1 5 C0.01 4.67 -0.98 4.34 -2 4 C-2.66 5.32 -3.32 6.64 -4 8 C-4.66 8 -5.32 8 -6 8 C-6.103 8.639 -6.206 9.279 -6.312 9.938 C-6.539 10.618 -6.766 11.299 -7 12 C-7.99 12.33 -8.98 12.66 -10 13 C-8.565 9.791 -6.783 7.422 -4.438 4.812 C-3.817 4.118 -3.197 3.423 -2.559 2.707 C-1.721 1.79 -0.878 0.878 0 0 Z " fill="#68DDDB" transform="translate(32,37)"/>
<path d="M0 0 C3.63 0 7.26 0 11 0 C12 5 12 5 11 8 C8.03 7.67 5.06 7.34 2 7 C2.99 6.34 3.98 5.68 5 5 C6.353 3.686 7.689 2.356 9 1 C6.03 1 3.06 1 0 1 C0 0.67 0 0.34 0 0 Z " fill="#194385" transform="translate(88,116)"/>
<path d="M0 0 C0.409 0.051 0.409 0.051 2.477 0.309 C2.79 0.35 2.79 0.35 4.375 0.562 C-3.125 5.562 -3.125 5.562 -5.625 5.562 C-5.625 6.222 -5.625 6.882 -5.625 7.562 C-6.285 7.562 -6.945 7.562 -7.625 7.562 C-8.625 4.562 -8.625 4.562 -7.812 2.438 C-5.662 -0.958 -3.674 -0.472 0 0 Z " fill="#4D2234" transform="translate(80.625,90.4375)"/>
<path d="M0 0 C6.924 0.364 13.121 4.155 17.977 8.953 C19.377 10.586 20.698 12.287 22 14 C18.806 12.52 16.091 10.697 13.25 8.625 C8.982 5.592 4.747 3.198 0 1 C0 0.67 0 0.34 0 0 Z " fill="#D0E8F5" transform="translate(103,24)"/>
<path d="M0 0 C5.967 1.57 10.829 4.75 16 8 C13.274 9.055 12.08 9.025 9.238 8.145 C8.273 7.705 7.307 7.265 6.312 6.812 C5.339 6.386 4.366 5.959 3.363 5.52 C1 4 1 4 0.168 1.824 C0.113 1.222 0.057 0.62 0 0 Z " fill="#A3DAFB" transform="translate(103,25)"/>
<path d="M0 0 C0.66 0.33 1.32 0.66 2 1 C1.564 1.389 1.129 1.779 0.68 2.18 C-5.643 8.119 -9.928 14.895 -13 23 C-14.043 20.327 -14.081 19.218 -13.066 16.484 C-9.487 9.976 -5.563 4.928 0 0 Z " fill="#D5E2F6" transform="translate(52,48)"/>
<path d="M0 0 C0.66 0 1.32 0 2 0 C0.089 6.305 -4.161 11.128 -9.75 14.5 C-10.823 14.995 -11.895 15.49 -13 16 C-13.66 15.67 -14.32 15.34 -15 15 C-14.42 14.588 -13.84 14.175 -13.242 13.75 C-8.323 10.113 -4.589 6.604 -1.191 1.504 C-0.995 1.256 -0.995 1.256 0 0 Z " fill="#2C9EE7" transform="translate(132,93)"/>
<path d="M0 0 C6.476 0.611 6.476 0.611 8.938 2.438 C10 4 10 4 10 6 C6.37 5.34 2.74 4.68 -1 4 C-0.67 2.68 -0.34 1.36 0 0 Z " fill="#22305A" transform="translate(105,47)"/>
<path d="M0 0 C7.334 1.88 13.994 6.341 19 12 C18.67 12.66 18.34 13.32 18 14 C17.371 13.481 16.742 12.961 16.094 12.426 C11.977 9.071 7.915 5.829 3.375 3.062 C2.261 2.382 1.147 1.701 0 1 C0 0.67 0 0.34 0 0 Z " fill="#ABF8EA" transform="translate(121,27)"/>
<path d="M0 0 C0 0.66 0 1.32 0 2 C0.66 2.33 1.32 2.66 2 3 C0.255 3.701 -1.496 4.385 -3.25 5.062 C-4.225 5.445 -5.199 5.828 -6.203 6.223 C-9.04 7.011 -10.294 7.024 -13 6 C-10.83 3.572 -9 2.394 -5.938 1.312 C-5.245 1.061 -4.553 0.81 -3.84 0.551 C-2 0 -2 0 0 0 Z " fill="#C1DFF9" transform="translate(108,109)"/>
<path d="M0 0 C0.66 0 1.32 0 2 0 C2 0.66 2 1.32 2 2 C4.64 2.66 4.64 2.66 18 6 C18 6.33 18 6.66 18 7 C10.885 7.537 5.55 5.697 -1 3 C-0.67 2.01 -0.34 1.02 0 0 Z " fill="#093C80" transform="translate(16,107)"/>
<path d="M0 0 C0.66 0.66 1.32 1.32 2 2 C-1.667 5.667 -5.333 9.333 -9 13 C-9 10.379 -8.687 8.491 -8 6 C-7.34 6 -6.68 6 -6 6 C-5.67 5.34 -5.34 4.68 -5 4 C-4.01 4 -3.02 4 -2 4 C-2 3.34 -2 2.68 -2 2 C-1.34 2 -0.68 2 0 2 C0 1.34 0 0.68 0 0 Z " fill="#0D64CC" transform="translate(46,40)"/>
<path d="M0 0 C6.961 0.387 11.939 2.634 18 6 C17.67 6.99 17.34 7.98 17 9 C16.051 8.422 15.102 7.845 14.125 7.25 C9.621 4.66 4.85 2.835 0 1 C0 0.67 0 0.34 0 0 Z " fill="#59A2F5" transform="translate(74,0)"/>
<path d="M0 0 C1.32 0.33 2.64 0.66 4 1 C4 1.99 4 2.98 4 4 C3.361 4.268 2.721 4.536 2.062 4.812 C0 6 0 6 -1 9 C-2.32 8.67 -3.64 8.34 -5 8 C-3.63 4.839 -3.011 4.007 0 2 C0 1.34 0 0.68 0 0 Z " fill="#89E8E5" transform="translate(121,120)"/>
<path d="M0 0 C0.33 0.66 0.66 1.32 1 2 C0.361 2.124 -0.279 2.248 -0.938 2.375 C-1.618 2.581 -2.299 2.787 -3 3 C-3.33 3.66 -3.66 4.32 -4 5 C-7.565 6.371 -11.234 6.072 -15 6 C-10.013 2.081 -6.369 0.735 0 0 Z " fill="#37192D" transform="translate(93,88)"/>
<path d="M0 0 C1.5 1.312 1.5 1.312 3 3 C3 3.99 3 4.98 3 6 C3.66 6.33 4.32 6.66 5 7 C5 9.31 5 11.62 5 14 C2.355 12.678 2.022 11.355 0.812 8.688 C0.63 8.298 0.63 8.298 -0.293 6.324 C-1.078 3.743 -0.899 2.503 0 0 Z " fill="#43B2F3" transform="translate(132,46)"/>
<path d="M0 0 C5 2 10 4 15 6 C13.152 7.043 13.152 7.043 11 8 C7.34 6.968 4.117 5.165 1 3 C0.67 2.01 0.34 1.02 0 0 Z " fill="#D0E3F7" transform="translate(42,105)"/>
<path d="M0 0 C0.33 0.99 0.66 1.98 1 3 C-1.97 3.66 -4.94 4.32 -8 5 C-8 5.66 -8 6.32 -8 7 C-8.66 7 -9.32 7 -10 7 C-8.071 1.361 -6.015 -0.325 0 0 Z " fill="#323858" transform="translate(62,49)"/>
<path d="M0 0 C2.437 2.24 3.869 4.054 4.33 7.381 C4.393 10.201 4.348 12.994 4.25 15.812 C4.232 16.792 4.214 17.771 4.195 18.779 C4.148 21.187 4.083 23.593 4 26 C3.67 26 3.34 26 3 26 C2.951 24.759 2.902 23.517 2.852 22.238 C2.777 20.596 2.701 18.954 2.625 17.312 C2.594 16.496 2.563 15.679 2.531 14.838 C2.318 10.445 1.849 7.051 0 3 C0 2.01 0 1.02 0 0 Z " fill="#032D80" transform="translate(136,53)"/>
<path d="M0 0 C0 0.33 0 0.66 0 1 C-1.65 1 -3.3 1 -5 1 C-5 1.66 -5 2.32 -5 3 C-3.35 3 -1.7 3 0 3 C0 3.66 0 4.32 0 5 C0.66 5 1.32 5 2 5 C2 5.66 2 6.32 2 7 C-2.557 6.562 -5.577 6.15 -9 3 C-6.39 -0.48 -4.169 -0.278 0 0 Z " fill="#212F51" transform="translate(115,68)"/>
<path d="M0 0 C1.102 3.352 0.893 5.751 0.188 9.188 C0.016 10.068 -0.155 10.948 -0.332 11.855 C-0.442 12.209 -0.442 12.209 -1 14 C-1.33 14.165 -1.33 14.165 -3 15 C-3 14.34 -3 13.68 -3 13 C-3.99 12.34 -4.98 11.68 -6 11 C-5.381 10.299 -4.762 9.597 -4.125 8.875 C-1.957 5.942 -0.973 3.488 0 0 Z " fill="#043471" transform="translate(135,89)"/>
<path d="M0 0 C0.66 0 1.32 0 2 0 C2 3 2 3 0.312 4.875 C-0.069 5.226 -0.069 5.226 -2 7 C-2.907 7.907 -3.815 8.815 -4.75 9.75 C-5.121 10.121 -5.121 10.121 -7 12 C-7.33 10.02 -7.66 8.04 -8 6 C-6.68 6 -5.36 6 -4 6 C-2.611 4.039 -1.274 2.038 0 0 Z " fill="#51D2F9" transform="translate(14,73)"/>
<path d="M0 0 C0.66 0 1.32 0 2 0 C2.33 1.32 2.66 2.64 3 4 C3.99 4 4.98 4 6 4 C5.34 5.32 4.68 6.64 4 8 C0.839 6.63 0.007 6.011 -2 3 C-1.34 3 -0.68 3 0 3 C0 2.01 0 1.02 0 0 Z " fill="#23294A" transform="translate(120,73)"/>
<path d="M0 0 C6.918 6.554 6.918 6.554 7.125 12.75 C7.084 13.823 7.042 14.895 7 16 C6.724 15.434 6.448 14.868 6.164 14.285 C4.572 11.16 2.791 8.15 1.023 5.121 C0 3 0 3 0 0 Z " fill="#4396DF" transform="translate(145,59)"/>
<path d="M0 0 C2.25 -0.438 2.25 -0.438 4 -1 C4 0.32 4 1.64 4 3 C-1.192 3.212 -5.127 2.591 -10 1 C-10 0.67 -10 0.34 -10 0 C-6.23 -0.771 -3.684 -0.982 0 0 Z " fill="#104794" transform="translate(103,20)"/>
<path d="M0 0 C2.64 0.33 5.28 0.66 8 1 C8 1.66 8 2.32 8 3 C5.03 3.66 2.06 4.32 -1 5 C-0.67 3.35 -0.34 1.7 0 0 Z " fill="#69E1E3" transform="translate(61,19)"/>
<path d="M0 0 C6.571 4 6.571 4 8 8 C4.893 7.664 3.396 7.41 1.188 5.125 C0 3 0 3 0 0 Z " fill="#0C4DA0" transform="translate(9,101)"/>
<path d="M0 0 C1.32 0 2.64 0 4 0 C4 1.32 4 2.64 4 4 C1.36 4.33 -1.28 4.66 -4 5 C-2.25 2.5 -2.25 2.5 0 0 Z " fill="#104A91" transform="translate(44,124)"/>
<path d="M0 0 C0.402 0.01 0.402 0.01 2.438 0.062 C2.438 1.713 2.438 3.362 2.438 5.062 C0.787 5.062 -0.862 5.062 -2.562 5.062 C-3.125 3.125 -3.125 3.125 -3.562 1.062 C-2.562 0.062 -2.562 0.062 0 0 Z " fill="#29BAD0" transform="translate(113.5625,115.9375)"/>
<path d="M0 0 C0.66 0 1.32 0 2 0 C2 0.66 2 1.32 2 2 C2.598 2.041 3.196 2.082 3.812 2.125 C6 3 6 3 7.75 5.875 C9 9 9 9 9 12 C7.494 10.381 5.995 8.754 4.5 7.125 C3.665 6.22 2.829 5.315 1.969 4.383 C0 2 0 2 0 0 Z " fill="#0C296B" transform="translate(25,90)"/>
<path d="M0 0 C-1.32 1.65 -2.64 3.3 -4 5 C-5.32 4.67 -6.64 4.34 -8 4 C-7.188 2.062 -7.188 2.062 -6 0 C-3 -1 -3 -1 0 0 Z " fill="#1F294B" transform="translate(51,76)"/>
<path d="M0 0 C0.825 0.33 0.825 0.33 5 2 C5 4.64 5 7.28 5 10 C2.088 6.712 0.503 4.401 0 0 Z " fill="#78E9E1" transform="translate(147,58)"/>
<path d="M0 0 C0.33 1.65 0.66 3.3 1 5 C-0.65 5.33 -2.3 5.66 -4 6 C-4.66 4.35 -5.32 2.7 -6 1 C-3 0 -3 0 0 0 Z " fill="#8AF3E7" transform="translate(150,54)"/>
<path d="M0 0 C2.252 2.688 3.882 4.646 5 8 C-0.538 7.385 -0.538 7.385 -2.875 5.438 C-3.246 4.963 -3.618 4.489 -4 4 C-2.68 4.33 -1.36 4.66 0 5 C0 3.35 0 1.7 0 0 Z " fill="#082366" transform="translate(107,18)"/>
<path d="M0 0 C3.3 0 6.6 0 10 0 C7.538 4.8 7.538 4.8 4.812 5.812 C4.214 5.874 3.616 5.936 3 6 C3.33 4.35 3.66 2.7 4 1 C2.68 0.67 1.36 0.34 0 0 Z " fill="#13A8D0" transform="translate(46,116)"/>
<path d="M0 0 C0.33 0.66 0.66 1.32 1 2 C0.074 4.348 0.074 4.348 -1.312 7.062 C-1.537 7.512 -1.537 7.512 -2.676 9.785 C-4 12 -4 12 -6 13 C-5.517 7.845 -2.814 4.184 0 0 Z " fill="#57DAD7" transform="translate(21,50)"/>
<path d="M0 0 C2.712 1.613 5.374 3.249 8 5 C7.67 6.32 7.34 7.64 7 9 C1.215 4.569 1.215 4.569 0.125 1.688 C0.084 1.131 0.042 0.574 0 0 Z " fill="#2274C1" transform="translate(137,53)"/>
<path d="M0 0 C0.66 0.33 1.32 0.66 2 1 C0.02 3.31 -1.96 5.62 -4 8 C-4.66 7.01 -5.32 6.02 -6 5 C-4.02 3.35 -2.04 1.7 0 0 Z M-6 8 C-5.67 8.99 -5.34 9.98 -5 11 C-5.33 11.165 -5.33 11.165 -7 12 C-6.67 10.68 -6.34 9.36 -6 8 Z " fill="#0656AD" transform="translate(39,36)"/>
<path d="M0 0 C6.148 1.206 8.352 2.916 12 8 C10.062 7.688 10.062 7.688 8 7 C7.67 6.01 7.34 5.02 7 4 C6.608 3.928 6.608 3.928 4.625 3.562 C2 3 2 3 0 2 C0 1.34 0 0.68 0 0 Z " fill="#2872D0" transform="translate(86,8)"/>
<path d="M0 0 C-0.33 0.99 -0.66 1.98 -1 3 C-0.34 3.33 0.32 3.66 1 4 C0.34 4.33 0.34 4.33 -3 6 C-3.103 5.361 -3.206 4.721 -3.312 4.062 C-3.539 3.382 -3.766 2.701 -4 2 C-4.99 1.67 -5.98 1.34 -7 1 C-4.537 -0.231 -2.72 -0.072 0 0 Z " fill="#20C0CD" transform="translate(46,119)"/>
<path d="M0 0 C-0.309 0.134 -0.309 0.134 -1.875 0.812 C-4 2 -4 2 -6 5 C-5.67 5.66 -5.34 6.32 -5 7 C-8.875 5.25 -8.875 5.25 -10 3 C-9.34 3 -8.68 3 -8 3 C-8 2.34 -8 1.68 -8 1 C-5.291 -0.354 -2.991 -0.065 0 0 Z " fill="#B54038" transform="translate(83,95)"/>
<path d="M0 0 C2.31 0.33 4.62 0.66 7 1 C7 2.32 7 3.64 7 5 C5.35 5 3.7 5 2 5 C2 3.68 2 2.36 2 1 C1.34 0.67 0.68 0.34 0 0 Z " fill="#5FC7FB" transform="translate(82,21)"/>
<path d="M0 0 C0.784 0.041 1.568 0.082 2.375 0.125 C2.045 0.29 2.045 0.29 0.375 1.125 C0.375 1.785 0.375 2.445 0.375 3.125 C2.025 3.125 3.675 3.125 5.375 3.125 C4.715 3.785 4.055 4.445 3.375 5.125 C0.412 4.73 -2.008 3.527 -4.625 2.125 C-2.625 0.125 -2.625 0.125 0 0 Z " fill="#051E4D" transform="translate(40.625,109.875)"/>
<path d="M0 0 C0.949 0.351 1.898 0.701 2.875 1.062 C2.545 2.052 2.215 3.043 1.875 4.062 C0.225 4.062 -1.425 4.062 -3.125 4.062 C-3.125 3.073 -3.125 2.082 -3.125 1.062 C-3.785 0.733 -4.445 0.403 -5.125 0.062 C-3.125 -0.938 -3.125 -0.938 0 0 Z " fill="#6A94C1" transform="translate(51.125,122.9375)"/>
<path d="M0 0 C2 1.812 2 1.812 4 4 C4 4.99 4 5.98 4 7 C2.68 7.33 1.36 7.66 0 8 C-1.431 5.138 -0.6 3.066 0 0 Z " fill="#63DDDE" transform="translate(118,116)"/>
<path d="M0 0 C1 3 1 3 1 7 C2.65 7.33 4.3 7.66 6 8 C6 8.66 6 9.32 6 10 C5.01 10.33 4.02 10.66 3 11 C0.938 8.875 0.938 8.875 -1 6 C-0.75 2.688 -0.75 2.688 0 0 Z " fill="#2295C0" transform="translate(110,114)"/>
<path d="M0 0 C0.99 0 1.98 0 3 0 C2.25 6.75 2.25 6.75 0 9 C-0.845 5.622 -1.108 3.325 0 0 Z " fill="#B4DBF9" transform="translate(133,84)"/>
<path d="M0 0 C0.66 0.66 1.32 1.32 2 2 C0.68 4.31 -0.64 6.62 -2 9 C-2.99 8.67 -3.98 8.34 -5 8 C-3.35 5.36 -1.7 2.72 0 0 Z " fill="#114EA3" transform="translate(35,53)"/>
<path d="M0 0 C1.98 0 3.96 0 6 0 C6 1.98 6 3.96 6 6 C3.378 4.951 2.206 4.351 0.75 1.875 C0.502 1.256 0.255 0.637 0 0 Z " fill="#D9E3EF" transform="translate(100,14)"/>
<path d="M0 0 C0.99 0.99 1.98 1.98 3 3 C2.34 3 1.68 3 1 3 C0.67 4.65 0.34 6.3 0 8 C-0.99 7.67 -1.98 7.34 -3 7 C-3.33 6.01 -3.66 5.02 -4 4 C-3.01 3.34 -2.02 2.68 -1 2 C-0.67 1.34 -0.34 0.68 0 0 Z " fill="#17ADF8" transform="translate(25,92)"/>
<path d="M0 0 C3.3 0.33 6.6 0.66 10 1 C9.67 1.66 9.34 2.32 9 3 C6.69 3 4.38 3 2 3 C2 2.34 2 1.68 2 1 C1.34 0.67 0.68 0.34 0 0 Z " fill="#9FD5F4" transform="translate(94,22)"/>
<path d="M0 0 C-0.33 1.65 -0.66 3.3 -1 5 C-2.32 5 -3.64 5 -5 5 C-4.625 3.062 -4.625 3.062 -4 1 C-2 0 -2 0 0 0 Z " fill="#9EF5E9" transform="translate(37,124)"/>
<path d="M0 0 C3.3 0 6.6 0 10 0 C9.67 0.165 9.67 0.165 8 1 C8 1.66 8 2.32 8 3 C5.657 2.744 3.322 2.407 1 2 C0.67 1.34 0.34 0.68 0 0 Z " fill="#0E4E92" transform="translate(76,124)"/>
<path d="M0 0 C0.99 0 1.98 0 3 0 C4.75 2.312 4.75 2.312 6 5 C5.67 5.99 5.34 6.98 5 8 C1.393 5.596 1.145 4.053 0 0 Z " fill="#76E6E7" transform="translate(133,46)"/>
<path d="M0 0 C0.66 1.32 1.32 2.64 2 4 C0.35 5.32 -1.3 6.64 -3 8 C-2.25 2.25 -2.25 2.25 0 0 Z " fill="#024498" transform="translate(31,46)"/>
<path d="M0 0 C0.949 0.041 1.898 0.082 2.875 0.125 C0.187 2.377 -1.771 4.007 -5.125 5.125 C-5.125 0.856 -4.225 0.169 0 0 Z " fill="#72E3DE" transform="translate(48.125,27.875)"/>
<path d="M0 0 C1.32 0.33 2.64 0.66 4 1 C4.33 2.32 4.66 3.64 5 5 C4.34 5 3.68 5 3 5 C3 4.34 3 3.68 3 3 C1.35 3 -0.3 3 -2 3 C-1.34 2.01 -0.68 1.02 0 0 Z " fill="#1C356D" transform="translate(51,121)"/>
<path d="M0 0 C0 1.32 0 2.64 0 4 C-1.485 4.165 -1.485 4.165 -9 5 C-2.871 0 -2.871 0 0 0 Z " fill="#0D3686" transform="translate(121,108)"/>
<path d="M0 0 C3.375 0.547 5.082 1.055 8 3 C7.67 3.99 7.34 4.98 7 6 C5.831 5.192 4.664 4.378 3.5 3.562 C2.85 3.11 2.201 2.658 1.531 2.191 C1.026 1.798 0.521 1.405 0 1 C0 0.67 0 0.34 0 0 Z " fill="#001E4B" transform="translate(23,101)"/>
<path d="M0 0 C2.062 0.438 2.062 0.438 4 1 C2 4 2 4 -0.625 4.688 C-1.017 4.739 -1.017 4.739 -3 5 C-1.125 1.125 -1.125 1.125 0 0 Z " fill="#041946" transform="translate(129,101)"/>
<path d="M0 0 C1.65 0.33 1.65 0.33 10 2 C10 2.99 10 3.98 10 5 C6.331 4.294 3.295 2.723 0 1 C0 0.67 0 0.34 0 0 Z " fill="#90D1FC" transform="translate(110,32)"/>
<path d="M0 0 C3.937 1.312 6.227 2.919 9 6 C8.67 6.66 8.34 7.32 8 8 C6.664 6.858 5.331 5.711 4 4.562 C3.257 3.924 2.515 3.286 1.75 2.629 C1.173 2.091 0.595 1.554 0 1 C0 0.67 0 0.34 0 0 Z " fill="#C7F9EF" transform="translate(131,33)"/>
<path d="M0 0 C2.64 0.33 5.28 0.66 8 1 C7.67 1.66 7.34 2.32 7 3 C4.69 3 2.38 3 0 3 C0 2.01 0 1.02 0 0 Z " fill="#C1DBF9" transform="translate(56,123)"/>
<path d="M0 0 C0.33 0.99 0.66 1.98 1 3 C-0.32 3.99 -1.64 4.98 -3 6 C-3.33 4.68 -3.66 3.36 -4 2 C-2.68 1.34 -1.36 0.68 0 0 Z " fill="#BFDAF6" transform="translate(129,95)"/>
<path d="M0 0 C0.99 1.32 1.98 2.64 3 4 C2.34 5.32 1.68 6.64 1 8 C0.34 8 -0.32 8 -1 8 C-0.67 5.36 -0.34 2.72 0 0 Z " fill="#C2D4ED" transform="translate(30,67)"/>
<path d="M0 0 C1.688 2 1.688 2 3 4 C2.67 4.66 2.34 5.32 2 6 C-0.629 4.478 -2.844 3.156 -5 1 C-3 0 -3 0 0 0 Z " fill="#D3E4F7" transform="translate(110,120)"/>
<path d="M0 0 C1.65 0 3.3 0 5 0 C5.33 0.99 5.66 1.98 6 3 C4.02 3 2.04 3 0 3 C0 2.01 0 1.02 0 0 Z " fill="#10173F" transform="translate(57,49)"/>
<path d="M0 0 C1.875 0.625 1.875 0.625 4 2 C5.25 5.125 5.25 5.125 6 8 C4.125 7.375 4.125 7.375 2 6 C0.75 2.875 0.75 2.875 0 0 Z " fill="#5FADC8" transform="translate(113,23)"/>
</svg>
