<?xml version="1.0" encoding="UTF-8"?>
<!-- Generator: visioncortex VTracer 0.6.12 -->
<svg version="1.1" xmlns="http://www.w3.org/2000/svg" width="20" height="23">
<path d="M0 0 C1.052 -0.017 2.104 -0.034 3.188 -0.051 C6 0.312 6 0.312 7.657 1.543 C9.394 3.832 9.347 5.13 9.293 7.98 C9.283 8.873 9.274 9.766 9.264 10.686 C9.239 11.614 9.213 12.543 9.188 13.5 C9.181 13.97 9.181 13.97 9.146 16.35 C9.111 18.671 9.057 20.992 9 23.312 C3.06 23.312 -2.88 23.312 -9 23.312 C-11.267 15.379 -11.893 10.079 -9 2.312 C-5.553 0.015 -4.067 0.015 0 0 Z " fill="#0B295C" transform="translate(11,-0.3125)"/>
<path d="M0 0 C3 0.25 3 0.25 5 2.25 C5.145 4.831 5.187 7.299 5.125 9.875 C5.116 10.581 5.107 11.288 5.098 12.016 C5.074 13.761 5.038 15.505 5 17.25 C1.7 17.25 -1.6 17.25 -5 17.25 C-5.054 14.791 -5.094 12.334 -5.125 9.875 C-5.142 9.176 -5.159 8.478 -5.176 7.758 C-5.193 5.921 -5.103 4.084 -5 2.25 C-3 0.25 -3 0.25 0 0 Z " fill="#E9EDF2" transform="translate(11,5.75)"/>
<path d="M0 0 C0 6.27 0 12.54 0 19 C-1.32 19 -2.64 19 -4 19 C-4.081 16.395 -4.14 13.793 -4.188 11.188 C-4.2 10.819 -4.2 10.819 -4.264 8.951 C-4.338 3.469 -4.338 3.469 -2.551 0.988 C-1 0 -1 0 0 0 Z " fill="#0A2861" transform="translate(20,4)"/>
<path d="M0 0 C1.936 -0.108 3.874 -0.186 5.812 -0.25 C6.352 -0.273 6.352 -0.273 9.082 -0.391 C12 0 12 0 13.887 2.016 C14.254 2.67 14.621 3.325 15 4 C14.01 4.33 13.02 4.66 12 5 C11.67 5.99 11.34 6.98 11 8 C9.02 7.34 7.04 6.68 5 6 C6.32 4.68 7.64 3.36 9 2 C6.36 2.66 3.72 3.32 1 4 C0.67 2.68 0.34 1.36 0 0 Z " fill="#163465" transform="translate(5,0)"/>
<path d="M0 0 C1.32 0 2.64 0 4 0 C3.67 0.99 3.34 1.98 3 3 C-0.563 4.688 -0.563 4.688 -4 6 C-4 5.01 -4 4.02 -4 3 C-2.68 2.67 -1.36 2.34 0 2 C0 1.34 0 0.68 0 0 Z " fill="#032059" transform="translate(10,2)"/>
<path d="M0 0 C3.96 0 7.92 0 12 0 C12 0.33 12 0.66 12 1 C11.687 1.066 11.687 1.066 10.102 1.402 C9.693 1.491 9.693 1.491 7.625 1.938 C6.813 2.112 6.001 2.286 5.164 2.465 C3 3 3 3 1 4 C0.67 2.68 0.34 1.36 0 0 Z " fill="#E8EBEF" transform="translate(5,0)"/>
<path d="M0 0 C0 1.65 0 3.3 0 5 C-1.32 5 -2.64 5 -4 5 C-3.625 3.062 -3.625 3.062 -3 1 C-1 0 -1 0 0 0 Z " fill="#072153" transform="translate(20,4)"/>
</svg>
