<?xml version="1.0" encoding="UTF-8"?>
<!-- Generator: visioncortex VTracer 0.6.12 -->
<svg version="1.1" xmlns="http://www.w3.org/2000/svg" width="94" height="77">
<path d="M0 0 C0.802 0.367 1.604 0.735 2.43 1.113 C5.609 2.617 8.428 4.263 11.227 6.395 C14.314 8.632 17.417 10.202 20.9 11.726 C29.399 15.477 34.427 19.68 39 28 C39.391 28.597 39.781 29.194 40.184 29.809 C41.462 33.241 41.247 36.702 41.188 40.312 C41.187 40.68 41.187 40.68 41.186 42.537 C41.09 54.536 41.09 54.536 38 58.688 C31.271 63.875 24.235 65.584 15.936 66.874 C12.456 67.435 9.82 68.082 6.562 69.562 C0.499 71.953 -6.214 71.482 -12.635 71.446 C-14.929 71.438 -17.22 71.466 -19.514 71.498 C-29.026 71.544 -36.659 70.971 -43.938 64.312 C-47.007 59.383 -47.596 54.673 -48.453 49 C-49.77 40.504 -49.77 40.504 -51.625 36.438 C-53.957 30.609 -53.839 24.726 -52 18.75 C-48.764 14.3 -44.593 11.075 -40.32 7.656 C-37.721 5.555 -35.684 3.593 -33.625 0.938 C-23.394 -10.511 -12.163 -5.823 0 0 Z " fill="#F7F6F4" transform="translate(53,6)"/>
<path d="M0 0 C0.802 0.367 1.604 0.735 2.43 1.113 C5.609 2.617 8.428 4.263 11.227 6.395 C14.314 8.632 17.417 10.202 20.9 11.726 C29.399 15.477 34.427 19.68 39 28 C39.391 28.597 39.781 29.194 40.184 29.809 C41.462 33.241 41.247 36.702 41.188 40.312 C41.187 40.68 41.187 40.68 41.186 42.537 C41.09 54.536 41.09 54.536 38 58.688 C33.095 62.469 27.403 65.826 21 65 C23.422 62.509 25.687 60.214 28.562 58.25 C32.837 54.305 34.671 49.778 35.352 44.027 C35.636 33.786 32.883 26.59 26 19 C17.392 11.937 8.025 12.247 -2.621 13.246 C-8.563 14.245 -12.536 17.067 -17 21 C-17.866 21.763 -18.733 22.526 -19.625 23.312 C-27.003 31.662 -30.452 38.702 -30.25 49.902 C-29.63 57.579 -24.939 61.481 -19.375 66.25 C-15.348 69.218 -11.946 69.189 -7.062 69.25 C-5.837 69.276 -4.611 69.302 -3.348 69.328 C-0 69 -0 69 1.926 67.527 C5.078 65.206 8.473 65.429 12.25 65.312 C12.995 65.278 13.74 65.244 14.508 65.209 C16.338 65.127 18.169 65.062 20 65 C20 65.33 20 65.66 20 66 C19.434 66.139 19.434 66.139 16.57 66.84 C15.089 67.206 13.607 67.571 12.125 67.938 C11.752 68.029 11.752 68.029 9.863 68.49 C4.227 69.887 4.227 69.887 2 71 C-0.448 71.135 -2.867 71.213 -5.316 71.238 C-5.682 71.242 -5.682 71.242 -7.53 71.263 C-9.081 71.277 -10.632 71.287 -12.183 71.295 C-14.529 71.312 -16.875 71.356 -19.221 71.4 C-28.866 71.501 -36.546 71.075 -43.938 64.312 C-47.007 59.383 -47.596 54.673 -48.453 49 C-49.77 40.504 -49.77 40.504 -51.625 36.438 C-53.957 30.609 -53.839 24.726 -52 18.75 C-48.764 14.3 -44.593 11.075 -40.32 7.656 C-37.721 5.555 -35.684 3.593 -33.625 0.938 C-23.394 -10.511 -12.163 -5.823 0 0 Z " fill="#26A9F6" transform="translate(53,6)"/>
<path d="M0 0 C3.849 3.536 7.329 6.988 9 12 C8.01 12 7.02 12 6 12 C4.309 10.02 2.642 8.021 1 6 C0.34 6 -0.32 6 -1 6 C-1.33 6.66 -1.66 7.32 -2 8 C-3.98 7.67 -5.96 7.34 -8 7 C-8.165 6.34 -8.165 6.34 -9 3 C-19.874 2.546 -28.428 3.147 -37.133 10.121 C-40.522 13.532 -43.234 17.522 -45 22 C-44.652 24.305 -44.652 24.305 -44 26 C-43.01 25.34 -42.02 24.68 -41 24 C-41 26.64 -41 29.28 -41 32 C-40.818 31.374 -40.636 30.747 -40.449 30.102 C-40.198 29.284 -39.946 28.467 -39.688 27.625 C-39.566 27.219 -39.566 27.219 -38.949 25.164 C-38 23 -38 23 -35 21 C-35.023 21.446 -35.023 21.446 -35.141 23.703 C-35.177 24.874 -35.213 26.044 -35.25 27.25 C-35.273 27.83 -35.273 27.83 -35.391 30.766 C-35 34 -35 34 -33.141 36.367 C-30.648 38.268 -29.125 38.844 -26 39 C-23.687 38.062 -23.687 38.062 -22 37 C-21.835 37.825 -21.835 37.825 -21 42 C-20.422 42.103 -19.845 42.206 -19.25 42.312 C-16.68 43.098 -15.063 44.305 -13 46 C-13.66 46 -14.32 46 -15 46 C-15.021 46.598 -15.041 47.196 -15.062 47.812 C-16 50 -16 50 -19.5 51.688 C-20.655 52.121 -21.81 52.554 -23 53 C-23.33 53.33 -23.66 53.66 -24 54 C-32.018 54.656 -38.484 54.991 -45 50 C-45.887 49.381 -46.774 48.763 -47.688 48.125 C-51.91 44.245 -54.655 40.031 -55.309 34.285 C-55.748 23.305 -52.16 15.257 -45 7 C-33.145 -3.738 -14.528 -9.485 0 0 Z " fill="#EAF1FB" transform="translate(77,22)"/>
<path d="M0 0 C-2.31 1.32 -4.62 2.64 -7 4 C-6.625 5.938 -6.625 5.938 -6 8 C-5.34 8.33 -4.68 8.66 -4 9 C-5 12 -5 12 -7.188 13.938 C-13.193 19.82 -16.372 27.551 -16.562 35.875 C-16.154 43.661 -13.756 47.792 -8 53 C-2.934 57.342 0.291 58.166 6.938 58.25 C8.163 58.276 9.389 58.302 10.652 58.328 C14 58 14 58 15.926 56.527 C19.078 54.206 22.473 54.429 26.25 54.312 C26.995 54.278 27.74 54.244 28.508 54.209 C30.338 54.127 32.169 54.062 34 54 C34 54.33 34 54.66 34 55 C32.868 55.277 31.736 55.554 30.57 55.84 C29.089 56.206 27.607 56.571 26.125 56.938 C25.752 57.029 25.752 57.029 23.863 57.49 C18.227 58.887 18.227 58.887 16 60 C13.552 60.135 11.133 60.213 8.684 60.238 C8.318 60.242 8.318 60.242 6.47 60.263 C4.919 60.277 3.368 60.287 1.817 60.295 C-0.529 60.312 -2.875 60.356 -5.221 60.4 C-14.866 60.501 -22.546 60.075 -29.938 53.312 C-34.497 45.989 -34.458 37.428 -35 29 C-33.02 29 -31.04 29 -29 29 C-29.165 28.031 -29.33 27.061 -29.5 26.062 C-31 15.001 -31 15.001 -28.375 9.75 C-23.268 3.837 -19.5 1.285 -11.875 0.125 C-11.172 -0.004 -10.47 -0.133 -9.746 -0.266 C-6.261 -0.859 -3.356 -1.269 0 0 Z " fill="#2DB7CF" transform="translate(39,17)"/>
<path d="M0 0 C1.311 2.623 0.957 4.456 0.812 7.375 C0.771 12.644 0.771 12.644 2.688 15.625 C5.268 17.159 6.997 17.85 10 18 C12.312 17.062 12.312 17.062 14 16 C14.33 17.65 14.66 19.3 15 21 C15.578 21.103 16.155 21.206 16.75 21.312 C19.32 22.098 20.937 23.305 23 25 C22.34 25 21.68 25 21 25 C20.979 25.598 20.959 26.196 20.938 26.812 C20 29 20 29 16.5 30.688 C15.922 30.904 15.922 30.904 13 32 C12.67 32.33 12.34 32.66 12 33 C9.667 33.041 7.333 33.042 5 33 C5 32.34 5 31.68 5 31 C4.072 31.206 3.144 31.412 2.188 31.625 C-1 32 -1 32 -4 30 C-3.67 29.34 -3.34 28.68 -3 28 C-4.65 27.67 -6.3 27.34 -8 27 C-11.709 13.555 -11.709 13.555 -11 8 C-9.28 5.624 -7.487 4.658 -5 3 C-5 5.64 -5 8.28 -5 11 C-4.807 10.374 -4.613 9.747 -4.414 9.102 C-4.284 8.693 -4.284 8.693 -3.625 6.625 C-3.37 5.813 -3.115 5.001 -2.852 4.164 C-2 2 -2 2 0 0 Z " fill="#FBF8F5" transform="translate(41,43)"/>
<path d="M0 0 C2.32 1.066 4.634 2.148 6.938 3.25 C7.797 3.641 8.657 4.031 9.543 4.434 C13.004 6.054 14.777 7.009 16.938 10.25 C15.696 10.311 14.455 10.371 13.176 10.434 C11.534 10.518 9.892 10.603 8.25 10.688 C7.433 10.727 6.617 10.766 5.775 10.807 C2.514 10.978 -0.575 11.142 -3.77 11.848 C-6.736 12.368 -9.106 11.789 -12.062 11.25 C-14.54 11.135 -17.02 11.075 -19.5 11.062 C-20.128 11.055 -20.128 11.055 -23.309 11.02 C-27.263 11.262 -30.318 12.028 -34.062 13.25 C-25.01 0.314 -15.567 -6.576 0 0 Z " fill="#053C89" transform="translate(46.0625,2.75)"/>
<path d="M0 0 C1.307 -0.003 2.614 -0.005 3.961 -0.008 C7.005 0.103 9.677 0.408 12.625 1.125 C9.094 4.437 5.424 4.814 0.812 5.438 C-5.54 6.455 -10.452 7.741 -14.375 13.125 C-18.14 19.417 -16.384 27.189 -15.375 34.125 C-18.374 34.076 -20.573 34.037 -23.375 33.125 C-27.158 27.687 -27.06 21.574 -26.375 15.125 C-24.614 9.402 -20.293 5.395 -15.375 2.125 C-12.805 1.488 -12.805 1.488 -10.375 1.125 C-6.767 -0.078 -3.803 -0.007 0 0 Z " fill="#94F3E7" transform="translate(26.375,12.875)"/>
<path d="M0 0 C0.619 0.66 1.237 1.32 1.875 2 C14.382 14.437 26.185 21.113 43.828 21.363 C47 21 47 21 48.906 19.523 C52.075 17.218 55.466 17.43 59.25 17.312 C59.995 17.278 60.74 17.244 61.508 17.209 C63.338 17.127 65.169 17.062 67 17 C67 17.33 67 17.66 67 18 C65.868 18.277 64.736 18.554 63.57 18.84 C62.089 19.206 60.607 19.571 59.125 19.938 C58.379 20.12 57.632 20.302 56.863 20.49 C51.227 21.887 51.227 21.887 49 23 C46.552 23.135 44.133 23.213 41.684 23.238 C41.318 23.242 41.318 23.242 39.47 23.263 C37.919 23.277 36.368 23.287 34.817 23.295 C32.471 23.312 30.125 23.356 27.779 23.4 C18.134 23.501 10.454 23.075 3.062 16.312 C0.293 11.865 -1.61 7.011 -0.539 1.727 C-0.361 1.157 -0.183 0.587 0 0 Z " fill="#012965" transform="translate(6,54)"/>
<path d="M0 0 C3.873 0.989 5.44 2.681 7.938 5.75 C9.173 9.455 9.514 12.899 8.938 16.75 C6.938 19.75 6.938 19.75 4.938 21.75 C-0.54 21.263 -0.54 21.263 -2.75 19.094 C-4.448 16.061 -4.363 13.953 -4.25 10.5 C-4.223 9.422 -4.196 8.345 -4.168 7.234 C-4.151 6.824 -4.151 6.824 -4.062 4.75 C-6.119 7.898 -7.431 10.301 -7.75 14.062 C-7.853 15.279 -7.956 16.496 -8.062 17.75 C-10.062 14.75 -10.062 14.75 -10.062 11.5 C-8.561 5.87 -5.883 1.441 0 0 Z " fill="#2B3350" transform="translate(45.0625,39.25)"/>
<path d="M0 0 C3.263 0.706 4.824 1.41 7 4 C8.602 7.205 8.143 10.671 8.125 14.188 C8.127 14.559 8.127 14.559 8.137 16.439 C8.116 28.501 8.116 28.501 5 32.688 C0.095 36.469 -5.597 39.826 -12 39 C-9.578 36.509 -7.313 34.214 -4.438 32.25 C-0.183 28.323 1.698 23.803 2.316 18.062 C2.437 11.76 1.621 6.078 0 0 Z " fill="#041B4B" transform="translate(86,32)"/>
<path d="M0 0 C2.296 3.445 2.54 5.938 3 10 C3.66 10 4.32 10 5 10 C4.839 10.857 4.678 11.714 4.512 12.598 C3.326 20.48 3.2 28.476 6 36 C0.292 30.81 -5.812 24.3 -7.25 16.5 C-7.494 11.027 -4.885 6.501 -2 2 C-1.34 1.34 -0.68 0.68 0 0 Z " fill="#023A86" transform="translate(19,30)"/>
<path d="M0 0 C0.571 0.217 1.142 0.433 1.73 0.656 C-0.58 1.976 -2.89 3.296 -5.27 4.656 C-4.895 6.594 -4.895 6.594 -4.27 8.656 C-3.61 8.986 -2.95 9.316 -2.27 9.656 C-3.27 12.656 -3.27 12.656 -5.582 14.906 C-7.805 17.181 -8.953 18.691 -10.395 21.406 C-12.27 24.656 -12.27 24.656 -15.27 25.656 C-19.142 14.507 -19.142 14.507 -17.227 10.445 C-15.363 8.561 -13.471 7.131 -11.27 5.656 C-10.497 5.067 -9.725 4.478 -8.93 3.871 C-3.007 -0.455 -3.007 -0.455 0 0 Z " fill="#085FC5" transform="translate(37.26953125,16.34375)"/>
<path d="M0 0 C4.091 0.736 5.505 2.419 8.125 5.562 C9.603 8.519 9.185 11.305 9.125 14.562 C8.795 14.562 8.465 14.562 8.125 14.562 C7.702 12.544 7.279 10.526 6.855 8.508 C6.125 6.562 6.125 6.562 3.125 4.562 C3.476 5.099 3.826 5.635 4.188 6.188 C5.451 9.389 5.017 11.268 4.125 14.562 C2.562 16.938 2.562 16.938 1.125 18.562 C-1.25 18.375 -1.25 18.375 -3.875 17.562 C-6.481 13.467 -6.247 9.25 -5.875 4.562 C-4.366 1.21 -3.615 0.707 0 0 Z " fill="#0A173B" transform="translate(74.875,33.4375)"/>
<path d="M0 0 C3.849 3.536 7.329 6.988 9 12 C6 12 6 12 4.57 10.574 C4.093 9.952 3.616 9.329 3.125 8.688 C-0.308 4.481 -3.627 2.06 -9 1 C-16.645 0.56 -23.613 0.997 -31 3 C-31 -1 -31 -1 -29 -3 C-19.664 -5.561 -8.257 -5.391 0 0 Z " fill="#F8FBFD" transform="translate(77,22)"/>
<path d="M0 0 C6.639 -0.472 10.77 0.75 16.562 3.938 C17.307 4.337 18.051 4.737 18.818 5.148 C24.609 8.42 28.692 12.146 32 18 C31.67 18.66 31.34 19.32 31 20 C28.875 20 28.875 20 26 19 C24.331 17.096 22.93 15.114 21.527 13.008 C18.071 8.464 13.429 6.396 8 5 C4.817 4.678 1.695 4.711 -1.5 4.812 C-2.322 4.826 -3.145 4.84 -3.992 4.854 C-5.995 4.888 -7.998 4.942 -10 5 C-6.796 2.864 -5.981 2.769 -2.312 2.875 C-1.908 2.884 -1.908 2.884 0.137 2.93 C0.444 2.941 0.444 2.941 2 3 C2 2.34 2 1.68 2 1 C1.34 0.67 0.68 0.34 0 0 Z " fill="#83E6EF" transform="translate(59,14)"/>
<path d="M0 0 C10.824 -1.12 19.572 4.236 29 9 C29 9.66 29 10.32 29 11 C21.605 11.376 21.605 11.376 18.688 9.562 C15.34 7.617 12.517 7.278 8.688 6.812 C7.433 6.654 6.179 6.495 4.887 6.332 C3.934 6.222 2.981 6.113 2 6 C1.34 4.02 0.68 2.04 0 0 Z " fill="#1C6BC9" transform="translate(30,0)"/>
<path d="M0 0 C0.66 0.66 1.32 1.32 2 2 C2.66 1.67 3.32 1.34 4 1 C4.653 4.024 5.102 6.901 5 10 C1.656 14.125 -4.025 16.273 -9 18 C-12.062 18.25 -12.062 18.25 -14 18 C-11.578 15.509 -9.313 13.214 -6.438 11.25 C-2.993 8.071 -1.653 4.322 0 0 Z " fill="#456A98" transform="translate(88,53)"/>
<path d="M0 0 C0.763 0.351 1.526 0.701 2.312 1.062 C5 2 5 2 8 1 C8.471 1.638 8.941 2.276 9.426 2.934 C10.048 3.76 10.671 4.586 11.312 5.438 C11.62 5.849 11.62 5.849 13.176 7.934 C15 10 15 10 18 11 C19.709 12.623 21.374 14.293 23 16 C23.598 16.598 24.196 17.196 24.812 17.812 C25.204 18.204 25.596 18.596 26 19 C16.312 17.603 6.302 10.32 0 3 C0 2.01 0 1.02 0 0 Z " fill="#0CA6EE" transform="translate(9,55)"/>
<path d="M0 0 C0 0.66 0 1.32 0 2 C-0.639 2.124 -1.279 2.248 -1.938 2.375 C-2.618 2.581 -3.299 2.788 -4 3 C-4.33 3.66 -4.66 4.32 -5 5 C-5.66 5 -6.32 5 -7 5 C-7 5.66 -7 6.32 -7 7 C-6.402 6.505 -5.804 6.01 -5.188 5.5 C-3 4 -3 4 0 4 C0.33 5.32 0.66 6.64 1 8 C0.557 8.113 0.557 8.113 -1.688 8.688 C-5.55 10.218 -7.378 11.795 -10 15 C-11.312 18.312 -11.312 18.312 -12 21 C-13.562 19.438 -13.562 19.438 -15 17 C-14.731 11.979 -13.865 8.048 -10.449 4.297 C-4.603 -0.837 -4.603 -0.837 0 0 Z " fill="#D4D5D9" transform="translate(46,32)"/>
<path d="M0 0 C0.454 0.495 0.907 0.99 1.375 1.5 C3 3 3 3 5 3 C5.66 2.34 6.32 1.68 7 1 C7.25 2.58 7.474 4.164 7.688 5.75 C7.815 6.632 7.943 7.513 8.074 8.422 C7.983 11.598 7.225 12.775 5 15 C2.312 15.25 2.312 15.25 0 15 C-1.765 10.256 -3.076 6.489 -1 1.688 C-0.67 1.131 -0.34 0.574 0 0 Z " fill="#0F1C4D" transform="translate(45,43)"/>
<path d="M0 0 C5.625 -0.25 5.625 -0.25 9 2 C10.858 5.233 12 7.244 12 11 C7.822 12.393 5.885 10.799 2 9 C1.67 9 1.34 9 1 9 C0.67 6.03 0.34 3.06 0 0 Z " fill="#34C0F7" transform="translate(4,46)"/>
<path d="M0 0 C1.307 -0.003 2.614 -0.005 3.961 -0.008 C7.005 0.103 9.677 0.408 12.625 1.125 C9.133 4.344 6.017 4.754 1.375 5.312 C0.743 5.392 0.743 5.392 -2.453 5.793 C-3.417 5.903 -4.382 6.012 -5.375 6.125 C-5.375 5.795 -5.375 5.465 -5.375 5.125 C-7.685 4.465 -9.995 3.805 -12.375 3.125 C-8.711 -0.539 -4.94 -0.01 0 0 Z " fill="#71E1E1" transform="translate(26.375,12.875)"/>
<path d="M0 0 C0.66 0 1.32 0 2 0 C1.401 6.345 1.401 6.345 -0.188 8.938 C-2.871 10.51 -4.956 10.324 -8 10 C-10 8 -10 8 -10.125 4.875 C-10.084 3.926 -10.042 2.977 -10 2 C-9.681 1.97 -9.681 1.97 -8.066 1.816 C-7.653 1.775 -7.653 1.775 -5.562 1.562 C-4.739 1.481 -3.915 1.4 -3.066 1.316 C-1 1 -1 1 0 0 Z " fill="#4F2F3B" transform="translate(68,56)"/>
<path d="M0 0 C0.66 0.66 1.32 1.32 2 2 C1.34 2.99 0.68 3.98 0 5 C-0.99 4.835 -0.99 4.835 -6 4 C-6.33 2.68 -6.66 1.36 -7 0 C-15.559 -0.367 -22.862 0.26 -31 3 C-23.313 -5.133 -9.526 -5.504 0 0 Z " fill="#D7E4F5" transform="translate(75,25)"/>
<path d="M0 0 C0 1.32 0 2.64 0 4 C0.664 3.977 1.328 3.954 2.012 3.93 C10.782 3.75 10.782 3.75 15 6 C12.43 7.285 11.746 6.689 9 6 C6.877 5.907 4.75 5.87 2.625 5.875 C1.524 5.872 0.423 5.87 -0.711 5.867 C-4 6 -4 6 -7.227 6.633 C-10 7 -10 7 -13 5 C-4.9 -1.75 -4.9 -1.75 0 0 Z " fill="#0F55AD" transform="translate(32,2)"/>
<path d="M0 0 C1.311 2.623 0.957 4.456 0.812 7.375 C0.736 12.662 0.736 12.662 3 15.562 C3.66 16.037 4.32 16.511 5 17 C5 17.66 5 18.32 5 19 C1.456 19.506 0.129 19.082 -2.938 17.125 C-5.279 13.578 -5.215 12.937 -4.5 8.938 C-3.645 5.286 -2.397 2.883 0 0 Z " fill="#CFD7E0" transform="translate(41,43)"/>
<path d="M0 0 C1.875 0.312 1.875 0.312 4 1 C4.66 1.99 5.32 2.98 6 4 C6.66 2.68 7.32 1.36 8 0 C8.33 2.64 8.66 5.28 9 8 C10.65 8.33 12.3 8.66 14 9 C14 9.66 14 10.32 14 11 C15.32 11.33 16.64 11.66 18 12 C18 11.67 18 11.34 18 11 C19.65 11 21.3 11 23 11 C22.67 11.99 22.34 12.98 22 14 C14.596 14.604 10.984 12.17 5.25 8 C3.135 6.12 1.512 4.387 0 2 C0 1.34 0 0.68 0 0 Z " fill="#CEE0F3" transform="translate(24,62)"/>
<path d="M0 0 C2.31 0 4.62 0 7 0 C6.521 4.219 5.834 6.797 3 10 C1.35 9.67 -0.3 9.34 -2 9 C-3 6 -3 6 -1.562 2.812 C-1.047 1.884 -0.531 0.956 0 0 Z " fill="#062759" transform="translate(73,42)"/>
<path d="M0 0 C0.299 0.103 0.299 0.103 1.812 0.625 C-0.498 1.945 -2.807 3.265 -5.188 4.625 C-4.812 6.562 -4.812 6.562 -4.188 8.625 C-3.528 8.955 -2.867 9.285 -2.188 9.625 C-3.321 13.024 -4.313 13.678 -7.188 15.625 C-9.639 13.786 -10.153 12.822 -10.688 9.75 C-10.025 5.609 -8.353 4.275 -5.188 1.625 C-2.188 -0.375 -2.188 -0.375 0 0 Z " fill="#1387E7" transform="translate(37.1875,16.375)"/>
<path d="M0 0 C0.33 0 0.66 0 1 0 C1.47 7.708 1.427 14.396 -3 21 C-3.99 21.66 -4.98 22.32 -6 23 C-5.835 21.515 -5.835 21.515 -5 14 C-6.32 13.34 -7.64 12.68 -9 12 C-7.02 12 -5.04 12 -3 12 C-2.938 11.474 -2.938 11.474 -2.625 8.812 C-2.089 5.54 -1.361 2.995 0 0 Z M-12 14 C-10 15 -10 15 -10 15 Z " fill="#E0ECF0" transform="translate(88,41)"/>
<path d="M0 0 C5.538 -0.286 9.248 -0.245 14 3 C14.875 5.188 14.875 5.188 15 7 C14.04 6.673 13.079 6.345 12.09 6.008 C7.568 4.716 3.232 4.777 -1.438 4.875 C-1.851 4.88 -1.851 4.88 -3.943 4.902 C-5.962 4.926 -7.981 4.962 -10 5 C-6.796 2.864 -5.981 2.769 -2.312 2.875 C-1.908 2.884 -1.908 2.884 0.137 2.93 C0.444 2.941 0.444 2.941 2 3 C2 2.34 2 1.68 2 1 C1.34 0.67 0.68 0.34 0 0 Z " fill="#A9D9F9" transform="translate(59,14)"/>
<path d="M0 0 C0.33 0 0.66 0 1 0 C1.043 2 1.041 4 1 6 C0.67 6.33 0.34 6.66 0 7 C-0.232 8.515 -0.412 10.038 -0.562 11.562 C-0.646 12.389 -0.73 13.215 -0.816 14.066 C-0.877 14.704 -0.938 15.343 -1 16 C-1.33 15.34 -1.66 14.68 -2 14 C-4.64 14.33 -7.28 14.66 -10 15 C-9.526 14.299 -9.051 13.597 -8.562 12.875 C-6.913 9.839 -6.396 7.408 -6 4 C-5.34 4.33 -4.68 4.66 -4 5 C-3.67 5.99 -3.34 6.98 -3 8 C-2.938 7.618 -2.938 7.618 -2.625 5.688 C-2 3 -2 3 0 0 Z " fill="#F6F9F9" transform="translate(87,39)"/>
<path d="M0 0 C3.255 0.561 4.998 1.331 7 4 C7.688 6.687 7.688 6.687 8 9 C6.68 9 5.36 9 4 9 C4 12.63 4 16.26 4 20 C3.67 20 3.34 20 3 20 C2.867 18.975 2.734 17.95 2.598 16.895 C2.419 15.534 2.241 14.173 2.062 12.812 C1.975 12.139 1.888 11.465 1.799 10.771 C1.322 7.149 0.77 3.572 0 0 Z " fill="#113E8F" transform="translate(86,32)"/>
<path d="M0 0 C0.66 0 1.32 0 2 0 C2 0.66 2 1.32 2 2 C3.65 1.67 5.3 1.34 7 1 C7.33 3.64 7.66 6.28 8 9 C2.63 8.654 2.63 8.654 0 8 C-1.562 6.125 -1.562 6.125 -2 4 C-1 1 -1 1 0 0 Z " fill="#60E4F3" transform="translate(3,38)"/>
<path d="M0 0 C4.95 0 9.9 0 15 0 C14.34 0.33 14.34 0.33 11 2 C11 2.66 11 3.32 11 4 C9.063 4.336 7.125 4.669 5.188 5 C4.648 5.093 4.648 5.093 1.918 5.562 C-1 6 -1 6 -4 6 C-3.526 5.567 -3.051 5.134 -2.562 4.688 C-1 3 -1 3 0 0 Z " fill="#5DBDF4" transform="translate(50,13)"/>
<path d="M0 0 C3.776 1.719 6.072 4.072 9 7 C9.66 7 10.32 7 11 7 C11.946 10.68 12.152 13.352 11 17 C10.032 18.031 9.036 19.037 8 20 C7.664 18.375 7.332 16.75 7 15.125 C6.814 14.22 6.629 13.315 6.438 12.383 C6 10 6 10 6 8 C5.049 6.591 4.041 5.219 3 3.875 C2.722 3.513 2.722 3.513 1.312 1.68 C0.879 1.125 0.446 0.571 0 0 Z " fill="#E5EBF2" transform="translate(76,27)"/>
<path d="M0 0 C0.99 0 1.98 0 3 0 C3.696 2.122 4.382 4.248 5.062 6.375 C5.445 7.558 5.828 8.742 6.223 9.961 C7 13 7 13 6 15 C4.679 13.424 3.369 11.839 2.062 10.25 C1.332 9.368 0.601 8.487 -0.152 7.578 C-1.83 5.237 -2.587 3.803 -3 1 C-2.67 1.165 -2.67 1.165 -1 2 C-0.67 1.34 -0.34 0.68 0 0 Z " fill="#052A72" transform="translate(18,51)"/>
<path d="M0 0 C2.688 -0.312 2.688 -0.312 6 0 C8.573 2.173 10.49 3.98 12 7 C12.04 9.333 12.043 11.667 12 14 C11.67 14 11.34 14 11 14 C10.577 11.982 10.154 9.964 9.73 7.945 C9 6 9 6 6 4 C5.67 4.99 5.34 5.98 5 7 C3.68 6.67 2.36 6.34 1 6 C0.67 4.02 0.34 2.04 0 0 Z " fill="#5A5E79" transform="translate(72,34)"/>
<path d="M0 0 C2.452 3.678 2.715 6.726 2 11 C0 14 0 14 -2 16 C-7.538 15.508 -7.538 15.508 -9.875 12.938 C-10.246 12.298 -10.617 11.659 -11 11 C-10.67 10.34 -10.34 9.68 -10 9 C-9.608 9.495 -9.216 9.99 -8.812 10.5 C-7 12 -7 12 -4.438 12.375 C-3.633 12.251 -2.829 12.127 -2 12 C0.136 8.796 0.231 7.981 0.125 4.312 C0.116 3.908 0.116 3.908 0.07 1.863 C0.047 1.248 0.024 0.634 0 0 Z " fill="#3790BD" transform="translate(52,45)"/>
<path d="M0 0 C0 0.33 0 0.66 0 1 C-1.132 1.277 -2.264 1.554 -3.43 1.84 C-4.911 2.206 -6.393 2.571 -7.875 2.938 C-8.621 3.12 -9.368 3.302 -10.137 3.49 C-15.773 4.887 -15.773 4.887 -18 6 C-19.874 6.07 -21.75 6.084 -23.625 6.062 C-24.628 6.053 -25.631 6.044 -26.664 6.035 C-27.435 6.024 -28.206 6.012 -29 6 C-29 5.67 -29 5.34 -29 5 C-28.397 4.963 -27.793 4.925 -27.172 4.887 C-26.772 4.854 -26.772 4.854 -24.75 4.688 C-24.356 4.658 -24.356 4.658 -22.359 4.512 C-20 4 -20 4 -18.008 2.5 C-15.597 0.699 -14.1 0.521 -11.125 0.312 C-10.254 0.248 -9.382 0.184 -8.484 0.117 C-5.652 -0.016 -2.835 -0.075 0 0 Z " fill="#6580A9" transform="translate(73,71)"/>
<path d="M0 0 C3.363 1.392 5.519 2.602 7 6 C6.185 10.64 4.826 15.032 1 18 C-1.688 17.688 -1.688 17.688 -4 17 C-3.701 16.887 -3.701 16.887 -2.188 16.312 C0.694 14.583 1.671 13.078 3 10 C2.768 6.205 1.896 3.286 0 0 Z " fill="#D5E3EE" transform="translate(76,36)"/>
<path d="M0 0 C2 1.375 2 1.375 4 3 C4 3.66 4 4.32 4 5 C6.97 5.99 9.94 6.98 13 8 C12.67 8.99 12.34 9.98 12 11 C9.69 10.67 7.38 10.34 5 10 C5.33 9.01 5.66 8.02 6 7 C4.35 6.67 2.7 6.34 1 6 C0.67 4.02 0.34 2.04 0 0 Z " fill="#E5EEFB" transform="translate(32,64)"/>
<path d="M0 0 C0.66 0.33 1.32 0.66 2 1 C1.505 1.681 1.01 2.361 0.5 3.062 C-1.304 6.595 -1.23 9.086 -1 13 C-0.34 13.33 0.32 13.66 1 14 C0 17 0 17 -2 18 C-5.63 6.361 -5.63 6.361 -4.086 3.023 C-2.688 1.688 -2.688 1.688 0 0 Z " fill="#0450A9" transform="translate(24,24)"/>
<path d="M0 0 C6.028 0.476 10.767 3.197 16 6 C16 6.66 16 7.32 16 8 C13.69 8 11.38 8 9 8 C8.67 7.01 8.34 6.02 8 5 C6.152 3.832 6.152 3.832 3.938 2.812 C3.204 2.468 2.471 2.124 1.715 1.77 C1.149 1.516 0.583 1.262 0 1 C0 0.67 0 0.34 0 0 Z " fill="#4A9CF3" transform="translate(43,3)"/>
<path d="M0 0 C0.33 0 0.66 0 1 0 C1 2.97 1 5.94 1 9 C2.32 8.34 3.64 7.68 5 7 C6.376 8.29 7.708 9.627 9 11 C9 11.66 9 12.32 9 13 C5.395 13.515 4.169 13.118 1.125 11 C-1.153 7.785 -1.274 7.347 -0.812 3.688 C-0.544 2.471 -0.276 1.254 0 0 Z " fill="#D9E0E7" transform="translate(37,49)"/>
<path d="M0 0 C0.144 0.619 0.289 1.237 0.438 1.875 C1 4 1 4 2 6 C1.912 8.211 1.757 10.42 1.562 12.625 C1.512 13.219 1.512 13.219 1.254 16.227 C1.212 16.684 1.212 16.684 1 19 C-1.39 15.415 -1.24 13.746 -1.188 9.5 C-1.181 8.355 -1.175 7.211 -1.168 6.031 C-1 3 -1 3 0 0 Z " fill="#C4D3E9" transform="translate(23,43)"/>
<path d="M0 0 C0.825 0.33 0.825 0.33 5 2 C5 2.66 5 3.32 5 4 C5.66 4 6.32 4 7 4 C10.479 7.044 12.608 9.572 14 14 C13.67 14.165 13.67 14.165 12 15 C11.625 14.469 11.25 13.938 10.863 13.391 C7.879 9.271 5.051 6.125 1 3 C0.67 2.01 0.34 1.02 0 0 Z " fill="#63CAF0" transform="translate(73,18)"/>
<path d="M0 0 C0.33 0 0.66 0 1 0 C1 1.65 1 3.3 1 5 C2.32 5.33 3.64 5.66 5 6 C4.34 6 3.68 6 3 6 C2.711 6.598 2.422 7.196 2.125 7.812 C1 10 1 10 -1 13 C-1.224 11.586 -1.428 10.168 -1.625 8.75 C-1.741 7.961 -1.857 7.172 -1.977 6.359 C-2.003 3.678 -1.366 2.273 0 0 Z " fill="#01143B" transform="translate(45,43)"/>
<path d="M0 0 C0.66 0.33 1.32 0.66 2 1 C1.67 1.99 1.34 2.98 1 4 C2.32 3.67 3.64 3.34 5 3 C4 5 4 5 1.25 6.125 C-1.702 6.92 -3.972 7.178 -7 7 C-4.667 4.667 -2.333 2.333 0 0 Z " fill="#6098C6" transform="translate(81,64)"/>
<path d="M0 0 C2.75 -0.25 2.75 -0.25 6 0 C8.375 2 8.375 2 10 4 C9.67 4.495 9.67 4.495 8 7 C7.01 6.67 6.02 6.34 5 6 C5 4.68 5 3.36 5 2 C3.35 2 1.7 2 0 2 C0 1.34 0 0.68 0 0 Z " fill="#70748E" transform="translate(42,40)"/>
<path d="M0 0 C1.32 0.33 2.64 0.66 4 1 C4 2.32 4 3.64 4 5 C4.66 5.33 5.32 5.66 6 6 C5.01 6.99 4.02 7.98 3 9 C1.5 7.875 1.5 7.875 0 6 C-0.188 2.812 -0.188 2.812 0 0 Z " fill="#0A73DE" transform="translate(27,23)"/>
<path d="M0 0 C0.66 0.33 1.32 0.66 2 1 C2 1.99 2 2.98 2 4 C3.65 3.67 5.3 3.34 7 3 C5.35 4.65 3.7 6.3 2 8 C-1 6 -1 6 -1.812 4 C-1.874 3.34 -1.936 2.68 -2 2 C-1.34 1.34 -0.68 0.68 0 0 Z " fill="#208FF5" transform="translate(33,19)"/>
<path d="M0 0 C0 0.66 0 1.32 0 2 C-6.27 1.34 -12.54 0.68 -19 0 C-19 -0.33 -19 -0.66 -19 -1 C-12.186 -2.053 -6.632 -1.938 0 0 Z " fill="#154C89" transform="translate(43,13)"/>
<path d="M0 0 C0.99 0 1.98 0 3 0 C1.125 4.875 1.125 4.875 0 6 C-1.666 6.041 -3.334 6.043 -5 6 C-5.33 5.34 -5.66 4.68 -6 4 C-5.67 3.34 -5.34 2.68 -5 2 C-4.34 2.165 -4.34 2.165 -1 3 C-0.67 2.01 -0.34 1.02 0 0 Z " fill="#042C5F" transform="translate(50,52)"/>
<path d="M0 0 C1.106 0.936 2.209 1.874 3.312 2.812 C3.927 3.335 4.542 3.857 5.176 4.395 C6.854 5.872 8.439 7.4 10 9 C5.872 8.393 2.668 6.962 -1 5 C-0.34 4.67 0.32 4.34 1 4 C0.67 2.68 0.34 1.36 0 0 Z " fill="#1C79C5" transform="translate(25,65)"/>
<path d="M0 0 C1.134 0.021 2.269 0.041 3.438 0.062 C3.438 1.383 3.438 2.703 3.438 4.062 C0.562 4.25 0.562 4.25 -2.562 4.062 C-3.222 3.073 -3.883 2.082 -4.562 1.062 C-3.562 0.062 -3.562 0.062 0 0 Z " fill="#BC4335" transform="translate(62.5625,61.9375)"/>
<path d="M0 0 C2.31 0.33 4.62 0.66 7 1 C6.34 2.32 5.68 3.64 5 5 C4.01 4.835 4.01 4.835 -1 4 C-0.67 2.68 -0.34 1.36 0 0 Z " fill="#9097AF" transform="translate(70,25)"/>
<path d="M0 0 C0.501 0.005 0.501 0.005 3.039 0.027 C3.81 0.039 4.581 0.051 5.375 0.062 C5.045 0.723 4.715 1.383 4.375 2.062 C2.16 2.547 2.16 2.547 -0.562 2.812 C-1.458 2.91 -2.354 3.008 -3.277 3.109 C-5.625 3.062 -5.625 3.062 -7.625 1.062 C-4.98 -0.26 -2.947 -0.034 0 0 Z " fill="#84E7E5" transform="translate(21.625,13.9375)"/>
<path d="M0 0 C1.32 1.32 2.64 2.64 4 4 C-0.62 4 -5.24 4 -10 4 C-6.356 1.571 -4.288 1.838 0 2 C0 1.34 0 0.68 0 0 Z " fill="#2455A8" transform="translate(59,9)"/>
<path d="M0 0 C3.776 1.719 6.072 4.072 9 7 C9.66 7 10.32 7 11 7 C10.67 8.65 10.34 10.3 10 12 C6.11 8.409 3.103 4.261 0 0 Z " fill="#D4E3F8" transform="translate(76,27)"/>
<path d="M0 0 C0.33 0.99 0.66 1.98 1 3 C-4.75 8 -4.75 8 -7 8 C-7 7.34 -7 6.68 -7 6 C-6.34 6 -5.68 6 -5 6 C-4.732 5.381 -4.464 4.763 -4.188 4.125 C-3 2 -3 2 0 0 Z " fill="#0D245D" transform="translate(89,60)"/>
<path d="M0 0 C0.33 0 0.66 0 1 0 C1.054 2.291 1.093 4.583 1.125 6.875 C1.148 8.151 1.171 9.427 1.195 10.742 C1 14 1 14 -1 16 C-2.268 12.346 -1.757 9.509 -1.062 5.75 C-0.868 4.672 -0.673 3.595 -0.473 2.484 C-0.317 1.665 -0.161 0.845 0 0 Z " fill="#042D66" transform="translate(93,41)"/>
<path d="M0 0 C0.33 0 0.66 0 1 0 C1.227 2.804 1.341 4.462 -0.188 6.875 C-2 8 -2 8 -4.688 7.688 C-5.451 7.461 -6.214 7.234 -7 7 C-6.402 6.773 -5.804 6.546 -5.188 6.312 C-2.441 4.665 -1.528 2.765 0 0 Z " fill="#27BAE4" transform="translate(79,46)"/>
<path d="M0 0 C0.598 0.206 1.196 0.413 1.812 0.625 C0.5 2.625 0.5 2.625 -1.188 4.625 C-2.178 4.625 -3.168 4.625 -4.188 4.625 C-4.517 3.635 -4.848 2.645 -5.188 1.625 C-2.188 -0.375 -2.188 -0.375 0 0 Z " fill="#34C2D4" transform="translate(21.1875,19.375)"/>
<path d="M0 0 C1.98 0 3.96 0 6 0 C6 0.99 6 1.98 6 3 C3.69 3 1.38 3 -1 3 C-0.67 2.01 -0.34 1.02 0 0 Z " fill="#EAF0F8" transform="translate(47,73)"/>
<path d="M0 0 C3.688 0.498 5.605 1.101 8 4 C5.69 4 3.38 4 1 4 C0.67 2.68 0.34 1.36 0 0 Z " fill="#011647" transform="translate(25,71)"/>
<path d="M0 0 C0.742 0.619 1.485 1.237 2.25 1.875 C4.488 3.604 6.437 4.861 9 6 C7.312 6.812 7.312 6.812 5 7 C2.25 4.688 2.25 4.688 0 2 C0 1.34 0 0.68 0 0 Z " fill="#30BAE9" transform="translate(41,54)"/>
<path d="M0 0 C2.494 0.998 3.787 1.686 5.312 3.938 C6 6 6 6 5 9 C0 3.375 0 3.375 0 0 Z " fill="#298BDA" transform="translate(88,32)"/>
<path d="M0 0 C4.75 0.875 4.75 0.875 7 2 C6.67 2.99 6.34 3.98 6 5 C3.562 4.188 3.562 4.188 1 3 C0.67 2.01 0.34 1.02 0 0 Z " fill="#3586E0" transform="translate(36,0)"/>
<path d="M0 0 C0.784 0.33 1.568 0.66 2.375 1 C5 2 5 2 7 2 C7 2.66 7 3.32 7 4 C4.625 4.625 4.625 4.625 2 5 C1.34 4.34 0.68 3.68 0 3 C0 2.01 0 1.02 0 0 Z " fill="#1AAEF3" transform="translate(9,55)"/>
<path d="M0 0 C1.258 -0.041 2.516 -0.082 3.812 -0.125 C4.52 -0.148 5.228 -0.171 5.957 -0.195 C8 0 8 0 11 2 C10.67 2.66 10.34 3.32 10 4 C6.7 3.01 3.4 2.02 0 1 C0 0.67 0 0.34 0 0 Z " fill="#BAE6F5" transform="translate(59,14)"/>
<path d="M0 0 C2 2 2 2 2.195 4.602 C2.172 5.599 2.149 6.597 2.125 7.625 C2.107 8.628 2.089 9.631 2.07 10.664 C2.059 11.049 2.059 11.049 2 13 C-0.475 10.525 -0.387 9.361 -0.688 5.938 C-0.774 5.039 -0.86 4.141 -0.949 3.215 C-0.966 2.484 -0.983 1.753 -1 1 C-0.67 0.67 -0.34 0.34 0 0 Z " fill="#074293" transform="translate(6,54)"/>
<path d="M0 0 C0.66 0 1.32 0 2 0 C1.458 3.796 -0.201 5.472 -3 8 C-3 6.68 -3 5.36 -3 4 C-2.34 4 -1.68 4 -1 4 C-0.67 2.68 -0.34 1.36 0 0 Z " fill="#C2E6F2" transform="translate(85,56)"/>
<path d="M0 0 C0 2 0 2 -1.5 3.625 C-1.995 4.079 -2.49 4.532 -3 5 C-4.32 4.34 -5.64 3.68 -7 3 C-2.25 0 -2.25 0 0 0 Z " fill="#021F50" transform="translate(52,50)"/>
<path d="M0 0 C0.66 0.33 1.32 0.66 2 1 C1.67 1.33 1.34 1.66 1 2 C0.928 3.519 0.916 5.042 0.938 6.562 C0.947 7.389 0.956 8.215 0.965 9.066 C0.976 9.704 0.988 10.343 1 11 C0.01 10.34 -0.98 9.68 -2 9 C-1.125 1.125 -1.125 1.125 0 0 Z " fill="#061E4D" transform="translate(43,45)"/>
<path d="M0 0 C1.875 0.75 1.875 0.75 2.875 2.75 C0.562 3.375 0.562 3.375 -2.125 3.75 C-3.115 3.09 -4.105 2.43 -5.125 1.75 C-2.125 -0.25 -2.125 -0.25 0 0 Z " fill="#0A4496" transform="translate(49.125,9.25)"/>
<path d="M0 0 C0.99 0.165 0.99 0.165 6 1 C6 1.66 6 2.32 6 3 C3.69 3 1.38 3 -1 3 C-0.67 2.01 -0.34 1.02 0 0 Z " fill="#79AFED" transform="translate(53,8)"/>
</svg>
