<?xml version="1.0" encoding="UTF-8"?>
<!-- Generator: visioncortex VTracer 0.6.12 -->
<svg version="1.1" xmlns="http://www.w3.org/2000/svg" width="39" height="34">
<path d="M0 0 C1.101 0.003 2.202 0.006 3.336 0.01 C4.421 -0.006 5.507 -0.022 6.625 -0.039 C16.873 -0.045 16.873 -0.045 21.586 3.322 C24.769 6.664 24.943 9.078 24.879 13.619 C24.874 14.222 24.874 14.222 24.85 17.271 C24.824 18.526 24.799 19.78 24.773 21.072 C24.767 21.707 24.767 21.707 24.732 24.92 C24.697 28.054 24.648 31.188 24.586 34.322 C19.496 34.372 14.405 34.408 9.315 34.432 C7.582 34.442 5.85 34.456 4.118 34.473 C1.63 34.497 -0.856 34.509 -3.344 34.518 C-4.121 34.528 -4.898 34.538 -5.699 34.549 C-7.605 34.549 -9.511 34.445 -11.414 34.322 C-13.955 31.781 -14.359 29.885 -14.483 26.343 C-14.391 24.085 -14.286 21.829 -14.164 19.572 C-14.137 18.799 -14.11 18.025 -14.082 17.229 C-13.521 6.433 -11.498 0.078 0 0 Z " fill="#F1F5F9" transform="translate(14.4140625,-0.322265625)"/>
<path d="M0 0 C1.09 -0.021 2.18 -0.041 3.303 -0.062 C9.134 -0.091 13.394 -0.023 18.312 3.25 C17.983 4.9 17.653 6.55 17.312 8.25 C7.413 8.25 -2.488 8.25 -12.688 8.25 C-12.688 -2.515 -9.295 0.043 0 0 Z " fill="#C2C6D7" transform="translate(17.6875,-0.25)"/>
<path d="M0 0 C0.33 0 0.66 0 1 0 C1 1.98 1 3.96 1 6 C1.763 5.814 2.526 5.629 3.312 5.438 C8.303 4.845 13.026 5.425 18 6 C18.33 4.68 18.66 3.36 19 2 C19 3.32 19 4.64 19 6 C19.557 5.814 20.114 5.629 20.688 5.438 C23.399 4.924 25.344 5.336 28 6 C27.312 7.938 27.312 7.938 26 10 C23.121 10.936 21.745 11.372 19 10 C19 10.66 19 11.32 19 12 C19.66 12.33 20.32 12.66 21 13 C12.429 14.286 12.429 14.286 9 13 C9 14.65 9 16.3 9 18 C7.68 17.67 6.36 17.34 5 17 C5.33 16.01 5.66 15.02 6 14 C6 14.66 6 15.32 6 16 C6.66 16 7.32 16 8 16 C7.67 15.34 7.34 14.68 7 14 C6.526 14.093 6.526 14.093 4.125 14.562 C1 15 1 15 -1 14 C-1 13.34 -1 12.68 -1 12 C-1.66 12 -2.32 12 -3 12 C-2.143 3.429 -2.143 3.429 0 0 Z " fill="#EBEEF4" transform="translate(4,2)"/>
<path d="M0 0 C1.488 1.051 1.488 1.051 3 3 C3.293 6.355 3.293 6.355 3.188 10.188 C3.16 11.46 3.133 12.732 3.105 14.043 C3.071 15.019 3.036 15.995 3 17 C-1.024 17.039 -4.943 16.992 -8.938 16.5 C-9.324 16.454 -9.324 16.454 -11.277 16.219 C-11.846 16.147 -12.414 16.074 -13 16 C-13 15.01 -13 14.02 -13 13 C-13.99 13 -14.98 13 -16 13 C-16 13.66 -16 14.32 -16 15 C-15.34 15 -14.68 15 -14 15 C-14 15.66 -14 16.32 -14 17 C-15.98 16.67 -17.96 16.34 -20 16 C-20 14.68 -20 13.36 -20 12 C-20.66 12 -21.32 12 -22 12 C-22.33 13.32 -22.66 14.64 -23 16 C-23 14.35 -23 12.7 -23 11 C-19.7 10.67 -16.4 10.34 -13 10 C-13 9.34 -13 8.68 -13 8 C-12.258 7.897 -11.515 7.794 -10.75 7.688 C-7.796 6.949 -6.347 5.878 -4 4 C-3.01 3.67 -2.02 3.34 -1 3 C-0.67 2.01 -0.34 1.02 0 0 Z " fill="#EEF1F7" transform="translate(36,4)"/>
<path d="M0 0 C0.66 0.33 1.32 0.66 2 1 C1.34 3.64 0.68 6.28 0 9 C-3.72 9.901 -6.88 10.035 -10.688 9.688 C-11.164 9.648 -11.164 9.648 -13.574 9.449 C-16 9 -16 9 -18 7 C-18.578 7.351 -19.155 7.701 -19.75 8.062 C-22.358 9.149 -23.394 8.931 -26 8 C-25.67 6.35 -25.34 4.7 -25 3 C-21.04 3 -17.08 3 -13 3 C-13 3.66 -13 4.32 -13 5 C-13.99 5 -14.98 5 -16 5 C-16 5.66 -16 6.32 -16 7 C-14.68 6.34 -13.36 5.68 -12 5 C-12 4.34 -12 3.68 -12 3 C-11.361 3.186 -10.721 3.371 -10.062 3.562 C-9.382 3.707 -8.701 3.851 -8 4 C-7.67 3.67 -7.34 3.34 -7 3 C-5 2.959 -3 2.957 -1 3 C-0.67 2.01 -0.34 1.02 0 0 Z " fill="#ACB8D5" transform="translate(34,24)"/>
<path d="M0 0 C2.051 0.033 4.102 0.065 6.152 0.098 C6.152 0.758 6.152 1.418 6.152 2.098 C7.802 2.428 9.452 2.758 11.152 3.098 C11.152 4.748 11.152 6.398 11.152 8.098 C6.532 8.098 1.912 8.098 -2.848 8.098 C-2.848 0.151 -2.848 0.151 0 0 Z " fill="#848EB1" transform="translate(7.84765625,-0.09765625)"/>
<path d="M0 0 C0.33 1.32 0.66 2.64 1 4 C1.557 3.814 2.114 3.629 2.688 3.438 C5.399 2.924 7.344 3.336 10 4 C9.312 5.938 9.312 5.938 8 8 C5.121 8.936 3.745 9.372 1 8 C1 8.66 1 9.32 1 10 C1.66 10.33 2.32 10.66 3 11 C0.36 11.33 -2.28 11.66 -5 12 C-7 9 -7 9 -7 6 C-5 4 -5 4 -2.375 3.875 C-1.591 3.916 -0.808 3.957 0 4 C0 2.68 0 1.36 0 0 Z " fill="#F7F9FB" transform="translate(22,4)"/>
<path d="M0 0 C1.32 0.33 2.64 0.66 4 1 C4 3.31 4 5.62 4 8 C2.68 8 1.36 8 0 8 C0 7.01 0 6.02 0 5 C-0.99 5 -1.98 5 -3 5 C-3 5.66 -3 6.32 -3 7 C-2.34 7 -1.68 7 -1 7 C-1 7.66 -1 8.32 -1 9 C-1.99 8.835 -1.99 8.835 -7 8 C-7 6.68 -7 5.36 -7 4 C-7.66 4 -8.32 4 -9 4 C-9.33 5.32 -9.66 6.64 -10 8 C-10 6.35 -10 4.7 -10 3 C-6.7 2.67 -3.4 2.34 0 2 C0 1.34 0 0.68 0 0 Z " fill="#B4C1DE" transform="translate(23,12)"/>
<path d="M0 0 C0.66 0.33 1.32 0.66 2 1 C1.34 3.64 0.68 6.28 0 9 C-4.293 10.263 -6.878 9.63 -11 8 C-10.01 7.34 -9.02 6.68 -8 6 C-7.67 5.01 -7.34 4.02 -7 3 C-5.02 3 -3.04 3 -1 3 C-0.67 2.01 -0.34 1.02 0 0 Z " fill="#BAC3DC" transform="translate(34,24)"/>
<path d="M0 0 C0.99 0.33 1.98 0.66 3 1 C2.01 1.33 1.02 1.66 0 2 C0 2.66 0 3.32 0 4 C2.64 3.67 5.28 3.34 8 3 C8.33 3.99 8.66 4.98 9 6 C8.01 6.33 7.02 6.66 6 7 C6.99 7.33 7.98 7.66 9 8 C5 8 5 8 3 7 C3 7.66 3 8.32 3 9 C1.35 8.67 -0.3 8.34 -2 8 C-2.125 5.125 -2.125 5.125 -2 2 C-1.34 1.34 -0.68 0.68 0 0 Z " fill="#A3B0D0" transform="translate(3,12)"/>
<path d="M0 0 C0.412 0.006 0.412 0.006 2.496 0.035 C3.322 0.044 4.149 0.053 5 0.062 C5.638 0.074 6.276 0.086 6.934 0.098 C6.604 1.748 6.274 3.398 5.934 5.098 C3.294 5.098 0.654 5.098 -2.066 5.098 C-2.629 3.16 -2.629 3.16 -3.066 1.098 C-2.066 0.098 -2.066 0.098 0 0 Z " fill="#5E6C99" transform="translate(29.06640625,2.90234375)"/>
<path d="M0 0 C1.134 0.021 2.269 0.041 3.438 0.062 C3.107 1.712 2.777 3.363 2.438 5.062 C0.457 5.392 -1.523 5.722 -3.562 6.062 C-3.945 4.406 -4.276 2.738 -4.562 1.062 C-3.562 0.062 -3.562 0.062 0 0 Z " fill="#A8B3D4" transform="translate(12.5625,26.9375)"/>
<path d="M0 0 C0.66 0 1.32 0 2 0 C2.33 0.66 2.66 1.32 3 2 C5.062 2.625 5.062 2.625 7 3 C7 3.66 7 4.32 7 5 C6 6 5 7 4 8 C1.875 7.625 1.875 7.625 0 7 C0 4.69 0 2.38 0 0 Z " fill="#A3AED1" transform="translate(28,13)"/>
<path d="M0 0 C0.33 0.165 0.33 0.165 2 1 C1.67 1.66 1.34 2.32 1 3 C1.66 2.34 2.32 1.68 3 1 C3.66 0.67 4.32 0.34 5 0 C5.381 1.991 5.713 3.993 6 6 C5 7 5 7 2.438 7.062 C2.035 7.052 2.035 7.052 0 7 C0 4.69 0 2.38 0 0 Z " fill="#4B578B" transform="translate(5,1)"/>
<path d="M0 0 C2.97 0 5.94 0 9 0 C8.67 0.165 8.67 0.165 7 1 C7 1.99 7 2.98 7 4 C7.66 4 8.32 4 9 4 C9 4.66 9 5.32 9 6 C8.01 5.835 8.01 5.835 3 5 C3 3.68 3 2.36 3 1 C2.34 1 1.68 1 1 1 C0.67 2.32 0.34 3.64 0 5 C0 3.35 0 1.7 0 0 Z " fill="#8D9EC7" transform="translate(13,15)"/>
<path d="M0 0 C0.189 0.24 0.189 0.24 1.145 1.457 C3.645 3.537 5.473 3.498 8.688 3.688 C9.681 3.753 10.675 3.819 11.699 3.887 C12.458 3.924 13.218 3.961 14 4 C14 4.33 14 4.66 14 5 C9.05 5 4.1 5 -1 5 C-0.67 3.35 -0.34 1.7 0 0 Z " fill="#FCFDFD" transform="translate(15,29)"/>
<path d="M0 0 C0.99 0 1.98 0 3 0 C3 1.98 3 3.96 3 6 C1.68 5.67 0.36 5.34 -1 5 C-0.67 3.35 -0.34 1.7 0 0 Z " fill="#A1AAD2" transform="translate(36,27)"/>
<path d="M0 0 C2.125 0.375 2.125 0.375 4 1 C3.01 1.33 2.02 1.66 1 2 C1 2.99 1 3.98 1 5 C2.32 5.66 3.64 6.32 5 7 C3.35 7.33 1.7 7.66 0 8 C-0.66 6.02 -1.32 4.04 -2 2 C-1.34 1.34 -0.68 0.68 0 0 Z " fill="#98A7CF" transform="translate(2,25)"/>
<path d="M0 0 C1.32 0.33 2.64 0.66 4 1 C3.688 2.938 3.688 2.938 3 5 C2.01 5.33 1.02 5.66 0 6 C0 4.02 0 2.04 0 0 Z " fill="#939FC5" transform="translate(22,27)"/>
<path d="M0 0 C0.825 0.165 0.825 0.165 5 1 C5.33 1.99 5.66 2.98 6 4 C4.35 4 2.7 4 1 4 C0.67 2.68 0.34 1.36 0 0 Z " fill="#8790B2" transform="translate(26,4)"/>
<path d="M0 0 C0.99 0 1.98 0 3 0 C3 1.98 3 3.96 3 6 C1.68 5.67 0.36 5.34 -1 5 C-0.67 3.35 -0.34 1.7 0 0 Z " fill="#A1ACD6" transform="translate(36,15)"/>
</svg>
